<?xml version="1.0" encoding="utf-8"?>
<!-- Generator: Adobe Illustrator 17.0.0, SVG Export Plug-In . SVG Version: 6.00 Build 0)  -->
<!DOCTYPE svg PUBLIC "-//W3C//DTD SVG 1.1//EN" "http://www.w3.org/Graphics/SVG/1.1/DTD/svg11.dtd">
<svg version="1.1" id="Ebene_1" xmlns="http://www.w3.org/2000/svg" xmlns:xlink="http://www.w3.org/1999/xlink" x="0px" y="0px"
	 width="960px" height="560px" viewBox="0 0 960 560" enable-background="new 0 0 960 560" xml:space="preserve">
<g>
	<path fill="#FFFFFF" d="M282.976,382.148H271.19l-31.461-51.771l-0.292,0.098v51.673h-11.835v-70.91h11.834l31.461,51.722
		l0.292-0.098v-51.624h11.786L282.976,382.148L282.976,382.148z"/>
	<path fill="#FFFFFF" d="M330.977,382.148h-11.835v-70.91h11.835V382.148z"/>
	<path fill="#FFFFFF" d="M419.936,372.554c-1.884,2.695-4.976,5.139-9.278,7.33c-4.303,2.191-9.83,3.287-16.583,3.287
		c-8.54,0-15.569-2.703-21.088-8.108c-5.52-5.406-8.279-12.395-8.279-20.967v-14.805c0-8.572,2.605-15.561,7.816-20.967
		c5.211-5.405,11.939-8.108,20.187-8.108c8.344,0,14.83,2.054,19.457,6.16c4.626,4.108,6.989,9.457,7.086,16.048l-0.097,0.292
		h-11.202c-0.26-3.896-1.648-7.037-4.164-9.424c-2.517-2.387-6.161-3.579-10.934-3.579c-4.903,0-8.856,1.833-11.859,5.498
		c-3.003,3.666-4.505,8.32-4.505,13.965v14.889c0,5.71,1.631,10.406,4.895,14.088s7.492,5.521,12.687,5.521
		c3.701,0,6.704-0.428,9.01-1.286c2.305-0.858,3.977-1.871,5.016-3.036v-14.379h-14.075v-8.863h25.91V372.554z"/>
	<path fill="#FFFFFF" d="M509.772,382.148h-11.786v-30.244h-31.754v30.244h-11.834v-70.91h11.834v31.169h31.754v-31.169h11.786
		L509.772,382.148L509.772,382.148z"/>
	<path fill="#FFFFFF" d="M593.715,320.735h-21.43v61.413H560.45v-61.413h-21.428v-9.497h54.693V320.735z"/>
	<path fill="#FFFFFF" d="M634.75,372.651h32.582v9.497h-44.417v-70.91h11.835V372.651z"/>
	<path fill="#FFFFFF" d="M706.663,345.72l17.144-34.481h13.198l-24.595,46.023v24.887h-11.786v-25.52l-24.205-45.391h13.198
		L706.663,345.72z"/>
</g>
<g>
	<polygon fill="#DE2769" points="553.004,215.475 552.629,216.548 552.993,217.675 	"/>
	<polygon fill="#DE2769" points="366.649,240.511 366.658,240.511 366.658,240.235 	"/>
	<path fill="#DE2769" d="M334.569,247c1.067,0,1,0,2,0c0-5,0-10,0-16c0,0,0,0,1,0c0-1,0-1,0-2c6,0,8.495,0,12.169,0
		c0.333,1,0.668,0.679,1.001,1.013c-0.013,5.991-0.025,11.987-0.037,17.987h1.859l-0.375-10.062l-0.042-12.797l-0.057-18.05
		l1.128-15.634l0.26-3.586l0.649-0.947l7.023,1.72l-0.004,0.993l1.009,0.056l0.006-0.995l3.94-1.1l0.183,3.805l0.771,15.898
		l-0.162,17.483l-0.115,12.606l0.014,0.065l0.573-0.032l0.065-4.335l1.141-0.105v-1.641l0.778-0.341h0.223v-3.682l-0.069-0.04
		l0.005-0.036l0.174-0.041l0.223-0.024l0.265-0.02l0.287-0.004l0.286,0.002l0.268,0.018l0.232,0.024l0.177,0.032l0.112,0.036
		l0.04,0.044v0.628l3.1-0.014l0.055-0.339l2.331-0.014c0.308-7.892,0.617-15.789,0.925-23.682c-1.495-0.131-5.134-1.545-2.107-3.172
		c-0.309-0.218-0.615-0.456-0.92-0.67c0-1.912-0.065-1.99,1.407-3.205c-0.011-0.916-0.019-1.842-0.029-2.842
		c0.685,0,1.239,0,2.239,0c0-1,0-1.88,0-2.906c0-0.134,0-0.267,1-0.404c0-3.766,0-7.529,0-11.296c-1-0.305-0.616-0.612-0.797-0.917
		c0.35-0.368,0.797-0.739,0.797-1.108c0-2.755,0-5.512,0-8.268c0-0.208,0-0.413,0-0.621c0-2.675,0-5.35,0-8.025
		c0-0.187,0-0.377,1-0.567c0-0.009,0-0.018,0-0.027c0,0.2,0.291,0.397,0.353,0.594c0.01,2.675,0.18,5.35,0.189,8.025
		c0.118,0.19,0.458,0.377,0.458,0.567c0,2.773,0,5.546,0,8.321c0,0.37,0.428,0.74,0.743,1.108c-0.182,0.306,0.257,0.613-0.743,0.917
		c0,3.756,0,7.512,0,11.268c1,0.127,1,0.252,1,0.377c0,1.054,0,1.96,0,2.96c0,0,0,0,1,0c0,1,0,2.022,0,2.93
		c3,1.193,1.719,1.308,1.719,3.162c-0.298,0.215-0.146,0.431-0.443,0.649c3.34,1.252-0.516,3.097-2.001,3.188
		c0.261,6.658,0.521,13.316,0.781,19.973l0.805-0.004l0.271-0.044l0.002,1.778l0.008,1.913l3.58-0.016l0.002,0.337l2.673-0.01
		l-0.004-0.589l0.011-0.04l0.086-0.042l0.155-0.041l0.215-0.034l0.259-0.028l0.29-0.02l0.298-0.004l0.285,0.004l0.248,0.016
		l0.201,0.024l0.136,0.03l0.06,0.042l0.017,4.02l0.604-0.058l0.871,0.117l0.008,1.653l0.857,0.099l0.019,4.353l0.223-0.012
		l0.773,0.052l0.018-0.902l0.003-46.756l0.9-0.271l0.173-8.987l4.891-1.855l3.033-0.153l5.739,1.56l0.185,8.973l1.801,0.385
		l0.024,17.222l7.55-0.016l0.119-56.634l16.338-0.109l0.433,56.706l6.983-0.012l0.003-0.319l-0.259-1.841l0.477-0.065l0.043-6.091
		l-0.255-1.82l0.475-0.077l0.025-3.492l-0.255-1.687l0.473-0.085l0.017-2.745l-0.253-1.673l0.47-0.091l0.014-2.242l-0.254-1.665
		l0.472-0.093l0.004-1.049l-0.25-1.659l0.399-0.085l-0.14-0.896l0.123-0.028l-0.167-1.082l0.13-0.028l-0.072-0.472l0.248-0.053
		l-0.239-1.548l0.247-0.056l-0.239-1.544l0.919-0.206l-0.126-0.961l0.357-0.69l0.103-0.024l-0.062-0.412l0.293-0.067l-0.073-0.533
		l0.405-0.777l0.22-0.052l-0.044-0.274l0.084-0.018l-0.017-0.111l0.082-0.018l-0.017-0.107l0.087-0.02l-0.019-0.107l0.062-0.014
		l-0.037-0.272l0.412-0.795l0.128-0.03l0.038-0.073l-0.03-0.178l0.092-0.02l-0.019-0.121l0.181-0.039l-0.03-0.24l0.427-0.826
		l0.136,0.014l0.177-0.349l0.02-0.006l-0.008-0.032l0.415-0.832l0.441,0.036l0.038-0.24l0.136-1.235l-0.208-0.012v-0.743
		l0.308-0.003L450.814,162h0.139l-0.243-1.847l1.06,0.333l0.315-4.661l0.26,3.882l0.004-0.019l0.199,0.455l-0.011,0.285l0.905-0.244
		L453.306,161h0.041l-0.348,2.366l-0.03,0.407l0.169,0.12L453.136,164h0.018l0.488,2h1.221l-0.166,1.359l1.295,0.209l-0.179,1.348
		l1.017,0.075l-0.19,1.419l0.84,0.061l-0.207,1.568l0.145,0.079l0.805,0.424l-0.24,1.504l0.243,0.127l-0.242,1.508l0.239,0.125
		l-0.254,1.512l0.223,0.125l-0.23,1.094l-0.061,0.02l-0.332,0.782v0.085l0.411,0.127l-0.012,0.995l0.101,0.105l-0.5,1.608v0.026
		l0.443,0.093l0.14,0.68l0.092,0.043l-0.025,0.206l0.309,0.141l-0.255,1.619l0.006,1.954l0.134,0.061l-0.023,0.194l0.354,0.153
		l-0.254,1.627l0.009,2.466l0.087,0.036l-0.02,0.184l0.393,0.16l-0.252,1.643l0.012,3.225l0.044,0.016l-0.019,0.172l0.441,0.164
		l-0.254,1.774l0.025,5.976l0.462,0.149l-0.253,1.798l0.031,7.538l0.472,0.125l-0.255,1.946l0.045,9.797l0.481,0.089l-0.241,2.382
		l0.075,11.141l0.533,0.044l-0.151,2.668l0.252,8.788l1.163-0.093v-1.451l-0.401-45.442l0.461-0.218l1.04-0.198l1.171-0.157
		l1.278-0.125l1.35-0.081l1.387-0.04l1.394,0.008l1.36,0.049l1.297,0.095l1.069,0.119l-0.004-1.146l1.104-0.198l0.007,1.477
		l-0.103,0.02l0.188,0.032l0.784,0.17l0.34-2.577l-0.003,0.002l-0.813,0.208l-1.158,0.224l-1.261,0.184l-1.337,0.135l-1.387,0.093
		l-1.416,0.044l-1.419-0.012l-1.399-0.052l-1.365-0.105l-1.165-0.136v1.3l-1,0.196v-1.568l0.353-0.048l-0.439-0.091l-0.914-0.237
		v-0.305l0.771-0.272l0.953-0.242l1.236-0.2l1.361-0.155l1.453-0.101l1.499-0.05l1.506,0.01l1.462,0.061l1.384,0.121l1.264,0.168
		l1.111,0.214l0.74,0.202l0.03,0.008l0.055-0.424l-0.033-6.372l0.002-0.01l0.074-0.002l0.035,0.008l0.062,11.419l-0.442,0.696
		l0.227,43.404l-0.027,0.002l0.008,1.443l0.176,0.024l0.018-1.538l0.182-0.077l0.411-0.073l0.611-0.062l0.379-0.022l0.536-48.823
		l0.493-0.133l0.023-2.353l-0.287-0.166l-0.503-0.343l-0.03-0.198l0.007-0.703l0.831-0.252l0.057-5.405l3.102-1.049l0.244,0.042
		l0.644,0.113l1.066,0.222l1.016,0.24l0.956,0.265l0.054,0.016l0.264,0.836l0.25,0.842l0.225,0.842l0.092,0.379l0.105,0.464
		l0.173,0.848l0.15,0.844l0.137,0.848l0.1,0.751l0.966-0.248l0.272,0.099l0.706,0.294l0.628,0.307l0.547,0.311l0.463,0.319
		l0.386,0.319l-0.06,29.495l3.442-2.236l1.844-0.23l2.313,0.061l3.815,2.176l-0.061,1.381l0.554,0.004l-0.114-18.992l0.206-0.02
		l-0.017-2.604l-2.039-0.948l-0.002-0.646l2.029-0.246l1.102,0.256l1.099,0.246l1.091,0.244l1.087,0.238l1.08,0.234l1.073,0.222
		l1.07,0.222l1.058,0.212l1.049,0.208l1.042,0.198l1.032,0.194l1.021,0.186l1.75,0.999l0.014,0.668l-0.699-0.093l0.018,0.832
		l0.721,0.375l0.332,18.718l1.45-1.578l0.098-10.418l0.421-0.022v-0.085l0.923-0.014l-0.228-5.316l0.042-0.002l0.066-0.016
		l0.196-0.004v-0.002l-0.12-0.022l-0.095-0.006l0.216-0.008v-0.004v-0.008l0.068,0.008l0.066,0.004l-0.021,0.022l-0.004,0.004
		l-0.007,0.002l-0.034,0.016l-0.006,0.004l0.014,5.324l0.799-0.008l0.485-0.004l1.593-0.018l0.487-0.004l0.666-0.006l-0.022-5.336
		l-0.019-0.002l-0.018-0.002l-0.067-0.016l-0.068-0.006l-0.142-0.016l-0.26-0.006l-0.51-0.008v-0.008l0.447-0.02l0.445-0.006
		l-0.126-0.006l-0.255-0.008l-0.511-0.013v-0.107l0.523-0.375l0.477-0.336V212h0.061h0.027l0.033-5.639l0.39,5.639h0.003h0.043
		l-0.025,0.419l-0.034,0.421l-0.056,0.018l-0.148,0.006l-0.294,0.007v0.01l0.295,0.021l0.299,0.007l-0.006,0.009l-0.006,0.007
		l-0.02,0.025l-0.006,0.014L525.083,213h-0.003l0.116,5.324l1.372-0.032v0.089l0.003,0.014l-0.076,10.453l1.331,1.302l-0.118-15.555
		l-0.14-0.026v-0.026l0.146-0.024l0.145-0.024l0.005-0.026l0.004-0.024l0.009-0.024l0.009-0.022l0.007-0.024l0.013-0.022l0.01-0.022
		l0.01-0.022l0.895-1.5l0.016-0.028l0.021-0.024l0.018-0.024l0.021-0.024l0.023-0.019l0.024-0.019l0.023-0.017l0.025-0.019
		l0.026-0.017l0.025-0.018l-0.003-1.995l4.714,1.182l4.267,2.052l0.003-1.222l2.656-0.613h0.03h0.029h0.031l0.028,0.339l0.031,0.339
		l2.386,0.664l0.028,0.01l0.025,0.008l0.025,0.016l0.024,0.016l0.024,0.012l0.021,0.024l0.021,0.018l1.188,1.245l0.002,0.018
		l-0.004,0.019v0.02v0.024v0.022l0.013,0.024l-0.013,0.03v0.026l0.037,0.026l0.023,0.028l-0.06,0.028v0.03l0.114,1.008h1.886v1
		h0.836h1.511h0.051h1.602v-1h1.458l0.004-1.064l-0.085,0.001l-0.377-2.334v-0.004l0.297-0.004l0.143-0.295l0.044-0.096l0.003-0.427
		l0.003,0.225h0.007h0.009h0.016h0.014h0.014h0.013h0.013l-0.092,0.201l-0.01,1.799h-0.005l-0.005,0.338l-0.002,0.597l1.109-0.016
		l-0.012,2.08h2.441v4h1.198l-0.163-15.423l0.863-1.094l-0.273-7.371l0.375-0.339v-4.053l1.865-0.395l0.542-3.23l0.89-0.117
		l0.003-1.524l0.274-0.142l0.052-0.176l0.018-6.137h0.018h0.035h0.057h0.068h0.074h0.082h0.079h0.071h0.058h0.043h0.025h0.002
		l-0.02,6.145l0.314,0.36l-0.005,1.522l1.05,0.033l-0.014,2.649l5.843,0.115l5.024,0.439l-0.061,3.902l2.661,0.326l-0.12,7.144
		l2.833,0.547l-0.895,43.114l1.133,0.605v-0.144l2,0.343V246h-0.325l0.344-43.483l0.013,0.131l0.046-0.047l0.081-0.052l0.112-0.065
		l0.144-0.09l0.169-0.141l0.203-0.252h0.225l0.247,0.262l0.269,0.316l0.286,0.207l0.301,0.433l9.433,0.782h0.386l0.376-0.894
		l0.357-0.886l0.332,0.021l0.304,0.026l0.263,0.035l0.217,0.042l0.174,0.053l0.115,0.066l0.065,0.086L595.147,226h0.456l0.018-1.639
		l0.961-0.093l0.036-0.256l0.101-0.202l0.413-0.196l0.785-0.184l0.652-0.024v-0.526l4-0.004v0.528l0.392,0.036l0.291,0.02
		l-0.095-13.453l2.315-0.406l10.984-2.402l1.452-0.27l-0.102,17.831l1.524-0.023l0.008-2.738h0.324h0.007h0.492l0.013-6h0.26
		l0.004-1.888l0.317-0.064l0.005-0.048h0.413l0.009-5h0.127l0.018-0.087l-0.01,5.087h0.648h0.22l0.005,0.072l0.254,0.874
		l0.007,0.018l-0.002,0.91l0.328,0.016l0.571,0.024l0.573,0.02l0.574,0.008l0.577,0.008l0.576,0.002l0.581-0.002l0.589-0.01
		l0.603-0.014l0.633-0.02l0.699-0.022l0.815-0.028v-0.906v-0.012V214h0.456l-0.002-5h-0.146l0.692-0.208V214h0.194l0.002,1.845
		l0.287,0.008l0.003,6.147h0.509h0.001h0.315l0.022,23h0.999h0.291l0.02,0.16l0.252,0.684l0.036,0.024l0.068,3.278V273h24
		c0-97-78.469-175.265-175.265-175.265S307.039,176,307.039,273h27.53V247z M519.569,213.298v-0.011v-0.009v-0.014v-0.029v-0.042
		l-0.084-0.061L519.399,213h0.01h0.001h0.003h0.019h0.009h0.002h0.018l-0.074,0.139l-0.078,0.146l-0.029-0.002l-0.004,0.003
		l-0.008,0.014l0.003,0.007l0.21,1.851l0.088-1.858V213.298z"/>
	<polygon fill="#DE2769" points="424.211,157.18 424.598,159.346 424.752,160.218 433.628,160.161 433.784,159.289 434.177,157.117 
		434.676,154.377 434.758,153.912 434.999,152.596 423.4,152.673 423.638,153.987 423.72,154.447 	"/>
	<polygon fill="#DE2769" points="552.16,217.622 552.535,216.548 552.168,215.416 	"/>
	<polygon fill="#DE2769" points="552.2,217.788 552.934,217.788 552.582,216.692 	"/>
	<polygon fill="#DE2769" points="553.004,215.17 552.17,215.103 552.17,215.119 552.584,216.403 553.004,215.194 	"/>
</g>
<g>
	<path fill="#FFFFFF" d="M244.264,416.734l0.031,0.092c0.04,2.098-0.696,3.852-2.21,5.264c-1.515,1.412-3.514,2.118-6.001,2.118
		c-2.527,0-4.587-0.895-6.177-2.686c-1.591-1.79-2.386-4.061-2.386-6.814v-3.975c0-2.752,0.795-5.026,2.386-6.822
		c1.59-1.796,3.65-2.693,6.177-2.693c2.526,0,4.537,0.673,6.031,2.018c1.493,1.346,2.22,3.129,2.179,5.348l-0.031,0.092h-2.901
		c0-1.565-0.46-2.803-1.381-3.714c-0.921-0.91-2.221-1.366-3.898-1.366c-1.688,0-3.034,0.681-4.036,2.041
		c-1.003,1.361-1.504,3.049-1.504,5.065v4.006c0,2.036,0.501,3.735,1.504,5.095c1.002,1.361,2.348,2.041,4.036,2.041
		c1.678,0,2.977-0.453,3.898-1.358c0.921-0.905,1.381-2.156,1.381-3.752H244.264z"/>
	<path fill="#FFFFFF" d="M251.247,421.523h10.896v2.363h-13.92v-22.345h3.023V421.523z"/>
	<path fill="#FFFFFF" d="M281.158,401.541v14.841c0,2.456-0.798,4.374-2.394,5.755c-1.596,1.381-3.653,2.072-6.169,2.072
		c-2.425,0-4.41-0.693-5.955-2.079c-1.545-1.386-2.317-3.302-2.317-5.747v-14.841h3.023v14.841c0,1.709,0.488,3.046,1.466,4.013
		c0.976,0.967,2.238,1.45,3.783,1.45c1.636,0,2.97-0.483,3.998-1.45c1.028-0.967,1.542-2.304,1.542-4.013v-14.841H281.158z"/>
	<path fill="#FFFFFF" d="M285.947,423.886v-22.345h7.29c2.333,0,4.159,0.505,5.479,1.512c1.32,1.008,1.98,2.52,1.98,4.535
		c0,0.962-0.297,1.824-0.89,2.586c-0.594,0.763-1.381,1.343-2.363,1.742c1.463,0.205,2.621,0.839,3.476,1.903
		c0.854,1.065,1.281,2.317,1.281,3.76c0,2.047-0.666,3.609-1.995,4.689c-1.33,1.08-3.131,1.619-5.402,1.619H285.947z
		 M288.97,411.041h4.896c1.125,0,2.041-0.309,2.747-0.928c0.706-0.619,1.059-1.481,1.059-2.586c0-1.207-0.382-2.11-1.143-2.709
		c-0.763-0.599-1.86-0.898-3.292-0.898h-4.266V411.041z M288.97,413.404v8.119h5.832c1.381,0,2.453-0.34,3.215-1.021
		c0.762-0.68,1.143-1.644,1.143-2.893c0-1.237-0.389-2.235-1.166-2.993c-0.778-0.757-1.826-1.161-3.146-1.212h-0.2H288.97z"/>
	<path fill="#FFFFFF" d="M317.838,418.254c0-1.013-0.364-1.862-1.09-2.548c-0.727-0.685-2.006-1.268-3.837-1.75
		c-2.271-0.562-4.044-1.391-5.318-2.486c-1.274-1.094-1.911-2.471-1.911-4.128c0-1.75,0.685-3.208,2.056-4.374
		c1.371-1.166,3.151-1.75,5.341-1.75c2.353,0,4.228,0.668,5.625,2.003s2.074,2.893,2.033,4.673l-0.046,0.092h-2.885
		c0-1.268-0.443-2.317-1.328-3.146c-0.885-0.829-2.018-1.243-3.399-1.243c-1.412,0-2.494,0.343-3.246,1.028
		c-0.752,0.686-1.128,1.576-1.128,2.67c0,0.973,0.411,1.783,1.235,2.432c0.823,0.65,2.161,1.22,4.013,1.711
		c2.25,0.583,3.964,1.443,5.141,2.578c1.176,1.136,1.765,2.538,1.765,4.205c0,1.801-0.709,3.249-2.126,4.343
		c-1.418,1.095-3.267,1.642-5.548,1.642c-2.159,0-4.065-0.603-5.717-1.811c-1.653-1.207-2.454-2.824-2.402-4.85l0.031-0.092h2.885
		c0,1.402,0.531,2.484,1.596,3.246c1.064,0.763,2.266,1.143,3.607,1.143c1.432,0,2.565-0.322,3.399-0.967
		C317.42,420.233,317.838,419.359,317.838,418.254z"/>
	<path fill="#FFFFFF" d="M349.851,423.886h-3.023L336.07,406.82l-0.092,0.031v17.035h-3.023v-22.345h3.023l10.758,17.051
		l0.092-0.031v-17.02h3.023V423.886z"/>
	<path fill="#FFFFFF" d="M366.902,418.131h-8.41l-1.995,5.755h-3.085l8.057-22.345h2.594l7.888,22.345h-3.085L366.902,418.131z
		 M359.366,415.599h6.676l-3.254-9.592h-0.092L359.366,415.599z"/>
	<path fill="#FFFFFF" d="M391.012,416.734l0.031,0.092c0.04,2.098-0.696,3.852-2.21,5.264c-1.515,1.412-3.514,2.118-6.001,2.118
		c-2.527,0-4.587-0.895-6.177-2.686c-1.591-1.79-2.386-4.061-2.386-6.814v-3.975c0-2.752,0.795-5.026,2.386-6.822
		c1.59-1.796,3.65-2.693,6.177-2.693c2.526,0,4.537,0.673,6.031,2.018c1.493,1.346,2.22,3.129,2.179,5.348l-0.031,0.092h-2.901
		c0-1.565-0.46-2.803-1.381-3.714c-0.921-0.91-2.221-1.366-3.898-1.366c-1.688,0-3.034,0.681-4.036,2.041
		c-1.003,1.361-1.504,3.049-1.504,5.065v4.006c0,2.036,0.501,3.735,1.504,5.095c1.002,1.361,2.348,2.041,4.036,2.041
		c1.678,0,2.977-0.453,3.898-1.358c0.921-0.905,1.381-2.156,1.381-3.752H391.012z"/>
	<path fill="#FFFFFF" d="M411.868,423.886h-3.023v-9.868h-10.85v9.868h-3.023v-22.345h3.023v10.098h10.85v-10.098h3.023V423.886z"/>
	<path fill="#FFFFFF" d="M424.898,423.886v-22.345h7.029c2.916,0,5.261,0.898,7.037,2.693c1.775,1.796,2.663,4.116,2.663,6.96v3.054
		c0,2.855-0.888,5.175-2.663,6.96c-1.775,1.786-4.121,2.678-7.037,2.678H424.898z M427.921,403.92v17.603h4.006
		c2.066,0,3.696-0.68,4.888-2.041c1.191-1.36,1.788-3.105,1.788-5.233v-3.085c0-2.107-0.597-3.842-1.788-5.203
		c-1.192-1.36-2.822-2.041-4.888-2.041H427.921z"/>
	<path fill="#FFFFFF" d="M458.385,413.527h-9.177v7.996h10.743v2.363h-13.766v-22.345h13.597v2.379h-10.574v7.228h9.177V413.527z"/>
	<path fill="#FFFFFF" d="M466.872,423.886h-3.039v-22.345h3.039V423.886z"/>
	<path fill="#FFFFFF" d="M489.309,423.886h-3.023l-10.758-17.066l-0.092,0.031v17.035h-3.023v-22.345h3.023l10.758,17.051
		l0.092-0.031v-17.02h3.023V423.886z"/>
	<path fill="#FFFFFF" d="M506.743,413.527h-9.177v7.996h10.743v2.363h-13.766v-22.345h13.597v2.379h-10.574v7.228h9.177V413.527z"/>
	<path fill="#FFFFFF" d="M522.965,419.696h0.092l7.136-18.155h3.76v22.345h-3.023v-16.744l-0.092-0.015l-6.768,16.759h-2.103
		L515,406.575l-0.092,0.015v17.296h-3.023v-22.345h3.975L522.965,419.696z"/>
	<path fill="#FFFFFF" d="M563.067,420.878c-0.532,0.829-1.456,1.591-2.77,2.287c-1.315,0.696-3.021,1.044-5.118,1.044
		c-2.578,0-4.711-0.854-6.4-2.563c-1.688-1.708-2.532-3.918-2.532-6.63v-4.604c0-2.711,0.813-4.921,2.44-6.63
		c1.627-1.708,3.724-2.563,6.292-2.563c2.486,0,4.451,0.663,5.893,1.987c1.443,1.326,2.143,3.011,2.103,5.057l-0.031,0.092h-2.901
		c0-1.36-0.44-2.494-1.32-3.399c-0.881-0.905-2.128-1.358-3.745-1.358c-1.709,0-3.085,0.64-4.128,1.918
		c-1.044,1.28-1.565,2.901-1.565,4.865v4.635c0,1.986,0.552,3.62,1.657,4.903c1.105,1.284,2.517,1.926,4.236,1.926
		c1.32,0,2.365-0.171,3.138-0.514c0.772-0.342,1.348-0.749,1.727-1.22v-5.034h-5.064v-2.363h8.088V420.878z"/>
	<path fill="#FFFFFF" d="M580.486,413.527h-9.177v7.996h10.743v2.363h-13.766v-22.345h13.597v2.379h-10.574v7.228h9.177V413.527z"/>
	<path fill="#FFFFFF" d="M597.536,418.254c0-1.013-0.364-1.862-1.09-2.548c-0.727-0.685-2.006-1.268-3.837-1.75
		c-2.271-0.562-4.044-1.391-5.318-2.486c-1.274-1.094-1.911-2.471-1.911-4.128c0-1.75,0.685-3.208,2.056-4.374
		c1.371-1.166,3.151-1.75,5.341-1.75c2.353,0,4.228,0.668,5.625,2.003c1.397,1.335,2.074,2.893,2.033,4.673l-0.046,0.092h-2.885
		c0-1.268-0.443-2.317-1.328-3.146c-0.885-0.829-2.018-1.243-3.399-1.243c-1.412,0-2.494,0.343-3.246,1.028
		c-0.752,0.686-1.128,1.576-1.128,2.67c0,0.973,0.411,1.783,1.235,2.432c0.823,0.65,2.161,1.22,4.013,1.711
		c2.25,0.583,3.964,1.443,5.141,2.578c1.176,1.136,1.765,2.538,1.765,4.205c0,1.801-0.709,3.249-2.126,4.343
		c-1.418,1.095-3.267,1.642-5.548,1.642c-2.159,0-4.065-0.603-5.717-1.811c-1.653-1.207-2.454-2.824-2.402-4.85l0.031-0.092h2.885
		c0,1.402,0.531,2.484,1.596,3.246c1.064,0.763,2.266,1.143,3.607,1.143c1.432,0,2.565-0.322,3.399-0.967
		C597.119,420.233,597.536,419.359,597.536,418.254z"/>
	<path fill="#FFFFFF" d="M620.787,416.734l0.031,0.092c0.04,2.098-0.696,3.852-2.21,5.264c-1.515,1.412-3.514,2.118-6.001,2.118
		c-2.527,0-4.587-0.895-6.177-2.686c-1.591-1.79-2.386-4.061-2.386-6.814v-3.975c0-2.752,0.795-5.026,2.386-6.822
		c1.59-1.796,3.65-2.693,6.177-2.693c2.526,0,4.537,0.673,6.031,2.018c1.493,1.346,2.22,3.129,2.179,5.348l-0.031,0.092h-2.901
		c0-1.565-0.46-2.803-1.381-3.714c-0.921-0.91-2.221-1.366-3.898-1.366c-1.688,0-3.034,0.681-4.036,2.041
		c-1.003,1.361-1.504,3.049-1.504,5.065v4.006c0,2.036,0.501,3.735,1.504,5.095c1.002,1.361,2.348,2.041,4.036,2.041
		c1.678,0,2.977-0.453,3.898-1.358c0.921-0.905,1.381-2.156,1.381-3.752H620.787z"/>
	<path fill="#FFFFFF" d="M641.643,423.886h-3.023v-9.868h-10.85v9.868h-3.023v-22.345h3.023v10.098h10.85v-10.098h3.023V423.886z"/>
	<path fill="#FFFFFF" d="M657.942,419.696h0.092l7.136-18.155h3.76v22.345h-3.023v-16.744l-0.092-0.015l-6.768,16.759h-2.103
		l-6.968-17.311l-0.092,0.015v17.296h-3.023v-22.345h3.975L657.942,419.696z"/>
	<path fill="#FFFFFF" d="M685.981,418.131h-8.41l-1.995,5.755h-3.085l8.057-22.345h2.594l7.888,22.345h-3.085L685.981,418.131z
		 M678.445,415.599h6.676l-3.254-9.592h-0.092L678.445,415.599z"/>
	<path fill="#FFFFFF" d="M710.091,416.734l0.031,0.092c0.04,2.098-0.696,3.852-2.21,5.264c-1.515,1.412-3.514,2.118-6.001,2.118
		c-2.527,0-4.587-0.895-6.177-2.686c-1.591-1.79-2.386-4.061-2.386-6.814v-3.975c0-2.752,0.795-5.026,2.386-6.822
		c1.59-1.796,3.65-2.693,6.177-2.693c2.526,0,4.537,0.673,6.031,2.018c1.494,1.346,2.22,3.129,2.179,5.348l-0.031,0.092h-2.901
		c0-1.565-0.46-2.803-1.381-3.714c-0.921-0.91-2.221-1.366-3.898-1.366c-1.688,0-3.034,0.681-4.036,2.041
		c-1.003,1.361-1.504,3.049-1.504,5.065v4.006c0,2.036,0.501,3.735,1.504,5.095c1.002,1.361,2.348,2.041,4.036,2.041
		c1.678,0,2.977-0.453,3.898-1.358c0.921-0.905,1.381-2.156,1.381-3.752H710.091z"/>
	<path fill="#FFFFFF" d="M719.038,413.788h-1.964v10.098h-3.023v-22.345h3.023v9.883h1.657l8.287-9.883h3.407l0.031,0.077
		l-9.055,10.574l9.699,11.618l-0.031,0.077h-3.668L719.038,413.788z"/>
	<path fill="#FFFFFF" d="M737.071,416.55h-3.023v-15.009h3.023V416.55z M737.086,423.886h-3.039v-3.131h3.039V423.886z"/>
</g>
</svg>
