<?xml version="1.0" encoding="utf-8"?>
<!-- Generator: Adobe Illustrator 16.0.0, SVG Export Plug-In . SVG Version: 6.00 Build 0)  -->
<!DOCTYPE svg PUBLIC "-//W3C//DTD SVG 1.1//EN" "http://www.w3.org/Graphics/SVG/1.1/DTD/svg11.dtd">
<svg version="1.1" id="Layer_1" xmlns="http://www.w3.org/2000/svg" xmlns:xlink="http://www.w3.org/1999/xlink" x="0px" y="0px"
	 width="841.89px" height="2019.484px" viewBox="0 0 841.89 2019.484" enable-background="new 0 0 841.89 2019.484"
	 xml:space="preserve">
<rect fill="#EF4136" width="841.89" height="2019.484"/>
<g>
	<path fill="#FFFFFF" d="M579.418,481.518c-7.002,0-12.695-5.693-12.695-12.691s5.693-12.691,12.695-12.691
		c6.996,0,12.689,5.693,12.689,12.691S586.414,481.518,579.418,481.518 M579.418,460.986c-4.324,0-7.844,3.518-7.844,7.84
		c0,4.324,3.52,7.84,7.844,7.84c4.32,0,7.838-3.516,7.838-7.84C587.256,464.504,583.738,460.986,579.418,460.986"/>
	<path fill="#FFFFFF" d="M604.586,471.818c1.652,0,2.992-1.34,2.992-2.992s-1.34-2.992-2.992-2.992h-0.625
		c-0.209-1.705-0.59-3.355-1.127-4.938l0.623-0.266c1.518-0.646,2.23-2.404,1.578-3.926c-0.646-1.52-2.404-2.229-3.922-1.582
		l-0.883,0.375c-0.422-0.654-0.875-1.287-1.354-1.902l0.451-0.449c1.168-1.172,1.168-3.064,0-4.234c-1.17-1.17-3.063-1.17-4.232,0
		l-0.449,0.451c-1.01-0.789-2.072-1.51-3.199-2.139l0.229-0.566c0.617-1.533-0.127-3.275-1.658-3.895
		c-1.533-0.617-3.275,0.127-3.895,1.658l-0.223,0.551c-1.135-0.307-2.299-0.545-3.492-0.693v-0.605c0-1.654-1.342-2.992-2.99-2.992
		c-1.656,0-2.996,1.338-2.996,2.992v0.605c-1.307,0.16-2.58,0.424-3.82,0.777l-0.213-0.498c-0.648-1.518-2.406-2.227-3.926-1.578
		c-1.523,0.646-2.23,2.408-1.578,3.926l0.209,0.494c-0.953,0.551-1.859,1.16-2.727,1.828l-0.406-0.408
		c-1.17-1.168-3.063-1.168-4.232,0c-1.168,1.168-1.168,3.064,0,4.234l0.361,0.361c-0.779,0.977-1.482,2.014-2.109,3.105
		l-0.697-0.281c-1.535-0.617-3.277,0.125-3.895,1.658c-0.617,1.535,0.123,3.279,1.658,3.896l0.596,0.24
		c-0.354,1.229-0.613,2.498-0.77,3.799h-0.492c-1.652,0-2.994,1.34-2.994,2.992s1.342,2.992,2.994,2.992h0.492
		c0.131,1.096,0.344,2.166,0.615,3.213l-0.691,0.297c-1.52,0.646-2.229,2.406-1.58,3.924c0.646,1.521,2.404,2.23,3.924,1.58
		l0.523-0.221c0.662,1.217,1.439,2.361,2.291,3.443l-0.455,0.453c-1.168,1.17-1.168,3.063,0,4.232c1.17,1.17,3.066,1.17,4.232,0
		l0.453-0.451c1.061,0.832,2.18,1.592,3.371,2.244l-0.186,0.459c-0.621,1.535,0.123,3.279,1.656,3.896
		c1.537,0.617,3.279-0.125,3.898-1.658l0.201-0.5c1.072,0.283,2.17,0.502,3.295,0.641v0.641c0,1.654,1.34,2.996,2.996,2.996
		c1.648,0,2.99-1.342,2.99-2.996v-0.641c1.342-0.164,2.652-0.432,3.92-0.801l0.277,0.65c0.648,1.52,2.406,2.23,3.926,1.578
		c1.521-0.646,2.23-2.402,1.584-3.924l-0.291-0.676c1.338-0.779,2.594-1.672,3.754-2.678l0.447,0.443
		c1.168,1.172,3.061,1.172,4.23,0c1.17-1.166,1.17-3.063,0-4.23l-0.65-0.652c0.521-0.734,1.012-1.494,1.449-2.285l0.688,0.277
		c1.535,0.619,3.279-0.125,3.898-1.66c0.613-1.533-0.127-3.275-1.66-3.893l-0.693-0.281c0.301-1.113,0.531-2.252,0.674-3.422
		H604.586z M579.418,488.721c-10.902,0-19.775-8.816-19.887-19.689c0.004-0.068,0.021-0.135,0.021-0.205
		c0-0.072-0.018-0.135-0.021-0.203c0.111-10.875,8.984-19.693,19.887-19.693c10.969,0,19.893,8.928,19.893,19.896
		S590.387,488.721,579.418,488.721"/>
</g>
<g>
	<path fill="#FFFFFF" d="M262.772,626.969c-15.914,0-28.859-12.945-28.859-28.861c0-15.914,12.945-28.859,28.859-28.859
		c15.912,0,28.859,12.945,28.859,28.859C291.631,614.023,278.684,626.969,262.772,626.969 M262.772,573.986
		c-13.301,0-24.123,10.82-24.123,24.121c0,13.303,10.822,24.125,24.123,24.125s24.121-10.822,24.121-24.125
		C286.893,584.807,276.073,573.986,262.772,573.986"/>
	<path fill="#FFFFFF" d="M260.147,598.109l6.908-6.908c0.885-0.889,0.885-2.326,0-3.211c-0.887-0.887-2.322-0.887-3.211,0
		l-8.511,8.512c-0.889,0.889-0.889,2.326,0,3.215l8.511,8.512c0.889,0.889,2.324,0.889,3.211,0c0.885-0.885,0.885-2.324,0-3.211
		L260.147,598.109z"/>
</g>
<g>
	<path fill="#FFFFFF" d="M368.167,626.969c-15.914,0-28.863-12.945-28.863-28.859s12.949-28.861,28.863-28.861
		c15.912,0,28.859,12.947,28.859,28.861S384.079,626.969,368.167,626.969 M368.167,573.986c-13.303,0-24.127,10.82-24.127,24.123
		c0,13.301,10.824,24.123,24.127,24.123c13.301,0,24.123-10.822,24.123-24.123C392.29,584.807,381.467,573.986,368.167,573.986"/>
	<path fill="#FFFFFF" d="M370.79,598.109l-6.908,6.908c-0.889,0.887-0.889,2.324,0,3.211c0.885,0.885,2.324,0.885,3.211,0
		l8.512-8.514c0.889-0.887,0.889-2.324,0-3.213l-8.512-8.512c-0.887-0.887-2.326-0.887-3.211,0c-0.889,0.885-0.889,2.322,0,3.211
		L370.79,598.109z"/>
</g>
<path fill="#FFFFFF" d="M473.525,569.25c-10.77,0-20.166,5.941-25.125,14.709c-0.016,0.035-0.045,0.059-0.057,0.094
	c-2.334,4.164-3.678,8.953-3.678,14.057c0,7.068,2.564,13.545,6.799,18.566c0.129,0.193,0.281,0.363,0.463,0.512
	c5.291,5.984,13.002,9.781,21.598,9.781c8.572,0,16.258-3.775,21.547-9.729c0.246-0.182,0.447-0.404,0.602-0.658
	c4.186-5.01,6.715-11.449,6.715-18.473C502.389,582.195,489.441,569.25,473.525,569.25z M473.525,573.986
	c8.299,0,15.633,4.213,19.975,10.613l-19.975,19.971L453.553,584.6C457.895,578.199,465.229,573.986,473.525,573.986z
	 M452.637,610.121c-2.045-3.543-3.234-7.635-3.234-12.012c0-3.238,0.65-6.326,1.816-9.15l6.283,6.285L452.637,610.121z
	 M473.525,622.232c-6.848,0-13.025-2.883-17.418-7.48l5.15-15.752l10.592,10.594c0.463,0.463,1.07,0.693,1.676,0.693
	c0.607,0,1.211-0.23,1.674-0.693l10.615-10.615l5.152,15.752C486.57,619.342,480.387,622.232,473.525,622.232z M494.434,610.092
	l-4.863-14.867l6.264-6.266c1.166,2.824,1.818,5.912,1.818,9.15C497.652,602.471,496.471,606.557,494.434,610.092z"/>
<g>
	<path fill="#FFFFFF" d="M368.446,311.506c-15.914,0-28.859,12.947-28.859,28.859c0,15.916,12.945,28.861,28.859,28.861
		c15.916,0,28.861-12.945,28.861-28.861C397.307,324.453,384.362,311.506,368.446,311.506z M368.446,364.49
		c-13.301,0-24.122-10.822-24.122-24.125c0-13.301,10.821-24.123,24.122-24.123c8.697,0,16.309,4.641,20.557,11.561h-30.918
		c-1.254,0-2.27,1.018-2.27,2.27c0,1.254,1.016,2.27,2.27,2.27h33.085c0.892,2.514,1.4,5.207,1.4,8.023
		C392.57,353.668,381.75,364.49,368.446,364.49z"/>
	<path fill="#FFFFFF" d="M385.915,337.832h-27.831c-1.253,0-2.269,1.018-2.269,2.27s1.016,2.27,2.269,2.27h27.831
		c1.253,0,2.268-1.018,2.268-2.27S387.167,337.832,385.915,337.832z"/>
	<path fill="#FFFFFF" d="M370.124,348.391h-12.04c-1.253,0-2.271,1.018-2.271,2.27s1.018,2.27,2.271,2.27h12.04
		c1.254,0,2.27-1.018,2.27-2.27S371.377,348.391,370.124,348.391z"/>
</g>
<g>
	<path fill="#FFFFFF" d="M473.809,311.506c-15.912,0-28.859,12.947-28.859,28.859c0,15.916,12.947,28.861,28.859,28.861
		c15.914,0,28.859-12.945,28.859-28.861C502.668,324.453,489.723,311.506,473.809,311.506z M463.447,352.93h30.918
		c-4.246,6.92-11.859,11.561-20.557,11.561c-13.301,0-24.123-10.822-24.123-24.125c0-13.301,10.822-24.123,24.123-24.123
		c8.697,0,16.311,4.641,20.557,11.561h-30.918c-1.256,0-2.27,1.018-2.27,2.27c0,1.254,1.014,2.27,2.27,2.27h33.084
		c0.621,1.752,1.064,3.584,1.266,5.49h-34.35c-1.256,0-2.27,1.016-2.27,2.27s1.014,2.27,2.27,2.27h34.383
		c-0.172,2.096-0.623,4.109-1.299,6.02h-33.084c-1.256,0-2.27,1.018-2.27,2.27C461.178,351.916,462.191,352.93,463.447,352.93z"/>
</g>
<g>
	<path fill="#FFFFFF" d="M579.482,311.506c-15.914,0-28.861,12.947-28.861,28.859c0,15.916,12.947,28.861,28.861,28.861
		c15.912,0,28.859-12.945,28.859-28.861C608.342,324.453,595.395,311.506,579.482,311.506z M573.854,352.93h26.184
		c-4.246,6.92-11.857,11.561-20.555,11.561c-13.303,0-24.123-10.822-24.123-24.125c0-13.301,10.82-24.123,24.123-24.123
		c8.697,0,16.309,4.641,20.555,11.561h-26.184c-1.252,0-2.268,1.018-2.268,2.27c0,1.254,1.016,2.27,2.268,2.27h28.352
		c0.619,1.752,1.064,3.584,1.264,5.49h-29.615c-1.252,0-2.268,1.016-2.268,2.27s1.016,2.27,2.268,2.27h29.65
		c-0.174,2.096-0.625,4.109-1.299,6.02h-28.352c-1.252,0-2.268,1.018-2.268,2.27C571.586,351.916,572.602,352.93,573.854,352.93z"/>
	<path fill="#FFFFFF" d="M566.07,327.803c-1.256,0-2.273,1.016-2.273,2.27s1.018,2.27,2.273,2.27c1.25,0,2.266-1.016,2.266-2.27
		S567.32,327.803,566.07,327.803z"/>
	<path fill="#FFFFFF" d="M566.07,337.832c-1.256,0-2.273,1.016-2.273,2.27s1.018,2.27,2.273,2.27c1.25,0,2.266-1.016,2.266-2.27
		S567.32,337.832,566.07,337.832z"/>
	<path fill="#FFFFFF" d="M566.07,348.391c-1.256,0-2.273,1.018-2.273,2.27c0,1.254,1.018,2.27,2.273,2.27
		c1.25,0,2.266-1.016,2.266-2.27C568.336,349.408,567.32,348.391,566.07,348.391z"/>
</g>
<g>
	<path fill="#FFFFFF" d="M368.448,441.191c-15.914,0-28.862,12.945-28.862,28.859c0,15.916,12.948,28.859,28.862,28.859
		c15.912,0,28.861-12.943,28.861-28.859C397.309,454.137,384.36,441.191,368.448,441.191 M387.239,485.145l-7.898-7.898
		c1.869-2.395,2.992-5.398,2.992-8.664c0-7.787-6.337-14.125-14.125-14.125c-7.787,0-14.125,6.338-14.125,14.125
		c0,7.789,6.338,14.125,14.125,14.125c3.236,0,6.211-1.104,8.596-2.941l7.981,7.982c-4.301,3.975-10.033,6.426-16.337,6.426
		c-13.303,0-24.125-10.82-24.125-24.123c0-13.301,10.822-24.123,24.125-24.123c13.301,0,24.123,10.822,24.123,24.123
		C392.571,475.76,390.565,481.01,387.239,485.145 M378.756,468.582c0,5.818-4.732,10.549-10.549,10.549
		c-5.815,0-10.549-4.73-10.549-10.549c0-5.816,4.733-10.547,10.549-10.547C374.024,458.035,378.756,462.766,378.756,468.582"/>
	<path fill="#FFFFFF" d="M371.831,467.461h-2.236v-2.236c0-0.752-0.607-1.355-1.355-1.355c-0.75,0-1.354,0.604-1.354,1.355v2.236
		h-2.237c-0.748,0-1.354,0.607-1.354,1.355s0.606,1.355,1.354,1.355h2.237v2.236c0,0.746,0.604,1.355,1.354,1.355
		c0.748,0,1.355-0.609,1.355-1.355v-2.236h2.236c0.749,0,1.355-0.607,1.355-1.355S372.58,467.461,371.831,467.461"/>
	<path fill="#FFFFFF" d="M364.518,470.189c-0.758,0-1.375-0.617-1.375-1.375c0-0.76,0.617-1.375,1.375-1.375h7.293
		c0.76,0,1.374,0.615,1.374,1.375c0,0.758-0.614,1.375-1.374,1.375H364.518z"/>
</g>
<g>
	<path fill="#FFFFFF" d="M473.811,441.191c-15.914,0-28.863,12.945-28.863,28.859c0,15.916,12.949,28.859,28.863,28.859
		c15.912,0,28.859-12.943,28.859-28.859C502.67,454.137,489.723,441.191,473.811,441.191 M492.602,485.145l-7.898-7.898
		c1.867-2.395,2.992-5.398,2.992-8.664c0-7.787-6.338-14.125-14.125-14.125s-14.125,6.338-14.125,14.125
		c0,7.789,6.338,14.125,14.125,14.125c3.236,0,6.211-1.104,8.596-2.941l7.98,7.982c-4.303,3.975-10.033,6.426-16.336,6.426
		c-13.303,0-24.125-10.82-24.125-24.123c0-13.301,10.822-24.123,24.125-24.123c13.301,0,24.123,10.822,24.123,24.123
		C497.934,475.76,495.93,481.01,492.602,485.145 M484.119,468.582c0,5.818-4.732,10.549-10.549,10.549
		c-5.818,0-10.549-4.73-10.549-10.549c0-5.816,4.73-10.547,10.549-10.547C479.387,458.035,484.119,462.766,484.119,468.582"/>
	<path fill="#FFFFFF" d="M469.881,470.189c-0.758,0-1.375-0.617-1.375-1.375c0-0.76,0.617-1.375,1.375-1.375h7.293
		c0.76,0,1.373,0.615,1.373,1.375c0,0.758-0.613,1.375-1.373,1.375H469.881z"/>
</g>
<g>
	<path fill="#FFFFFF" d="M262.772,325.33c-5.363,0-9.729,4.957-9.729,11.051c0,6.098,4.365,11.057,9.729,11.057
		c5.365,0,9.731-4.959,9.731-11.057C272.503,330.287,268.137,325.33,262.772,325.33 M262.772,343.23c-3.045,0-5.521-3.07-5.521-6.85
		c0-3.773,2.476-6.846,5.521-6.846c3.047,0,5.523,3.072,5.523,6.846C268.295,340.16,265.819,343.23,262.772,343.23"/>
	<path fill="#FFFFFF" d="M262.772,311.506c-15.912,0-28.861,12.947-28.861,28.859c0,15.914,12.949,28.861,28.861,28.861
		c15.914,0,28.861-12.947,28.861-28.861C291.633,324.453,278.686,311.506,262.772,311.506 M251.027,361.418
		c1.267-4.971,5.763-8.662,11.122-8.662h1.323c5.343,0,9.835,3.672,11.116,8.621c-3.498,1.973-7.522,3.113-11.816,3.113
		C258.508,364.49,254.506,363.367,251.027,361.418 M278.218,358.875c-2.2-6.016-7.976-10.326-14.746-10.326h-1.323
		c-4.758,0-9.029,2.127-11.911,5.479c-1.229,1.432-2.2,3.09-2.854,4.898c-5.33-4.43-8.735-11.104-8.735-18.561
		c0-13.301,10.823-24.123,24.124-24.123c13.304,0,24.125,10.822,24.125,24.123C286.897,347.795,283.516,354.445,278.218,358.875"/>
</g>
<g>
	<path fill="#FFFFFF" d="M262.773,441.191c-15.914,0-28.862,12.945-28.862,28.859c0,15.916,12.948,28.859,28.862,28.859
		c15.912,0,28.86-12.943,28.86-28.859C291.633,454.137,278.685,441.191,262.773,441.191 M281.564,485.145l-7.897-7.898
		c1.867-2.395,2.992-5.398,2.992-8.664c0-7.787-6.338-14.125-14.125-14.125s-14.126,6.338-14.126,14.125
		c0,7.789,6.339,14.125,14.126,14.125c3.236,0,6.211-1.104,8.596-2.941l7.98,7.982c-4.301,3.975-10.033,6.426-16.337,6.426
		c-13.302,0-24.124-10.82-24.124-24.123c0-13.301,10.822-24.123,24.124-24.123c13.301,0,24.123,10.822,24.123,24.123
		C286.896,475.76,284.891,481.01,281.564,485.145 M273.082,468.582c0,5.818-4.732,10.549-10.548,10.549
		c-5.816,0-10.549-4.73-10.549-10.549c0-5.816,4.732-10.547,10.549-10.547C268.349,458.035,273.082,462.766,273.082,468.582"/>
	<path fill="#FFFFFF" d="M268.816,467.645c-0.706,0-1.349-0.477-1.53-1.193c-0.389-1.541-1.592-2.727-3.138-3.09
		c-1.305-0.303-2.698,0.033-3.72,0.91c-0.663,0.57-1.658,0.492-2.227-0.17c-0.568-0.664-0.491-1.658,0.17-2.227
		c1.781-1.529,4.208-2.125,6.496-1.588c2.702,0.635,4.803,2.701,5.481,5.391c0.212,0.848-0.301,1.705-1.146,1.92
		C269.075,467.629,268.944,467.645,268.816,467.645"/>
	<path fill="#FFFFFF" d="M271.088,470.361c0,0.84-0.68,1.518-1.518,1.518s-1.518-0.678-1.518-1.518c0-0.836,0.68-1.518,1.518-1.518
		S271.088,469.525,271.088,470.361"/>
</g>
<g>
	<path fill="#FFFFFF" d="M640.959,584.793h-19.477h-3.432h-13.416c-4.82-9.229-14.479-15.543-25.59-15.543
		c-10.773,0-20.17,5.941-25.125,14.709c-0.016,0.035-0.045,0.059-0.059,0.094c-2.332,4.164-3.676,8.953-3.676,14.057
		c0,7.068,2.561,13.545,6.795,18.566c0.131,0.193,0.285,0.363,0.467,0.512c5.293,5.984,13,9.781,21.598,9.781
		c8.57,0,16.258-3.775,21.547-9.729c0.244-0.182,0.447-0.404,0.602-0.658c1.055-1.262,2.004-2.617,2.834-4.047h14.023h3.432h19.477
		c7.66,0,13.871-6.209,13.871-13.871S648.619,584.793,640.959,584.793z M579.045,573.986c8.299,0,15.629,4.213,19.971,10.613
		l-19.971,19.971L559.072,584.6C563.414,578.199,570.746,573.986,579.045,573.986z M558.156,610.121
		c-2.047-3.543-3.234-7.635-3.234-12.012c0-3.238,0.65-6.326,1.813-9.15l6.285,6.285L558.156,610.121z M579.045,622.232
		c-6.85,0-13.027-2.883-17.422-7.48L566.775,599l10.596,10.594c0.461,0.463,1.064,0.693,1.674,0.693c0.604,0,1.211-0.23,1.674-0.693
		l10.613-10.615l5.152,15.752C592.088,619.342,585.902,622.232,579.045,622.232z M599.951,610.092l-4.863-14.867l6.266-6.266
		c1.164,2.824,1.813,5.912,1.813,9.15C603.166,602.471,601.986,606.557,599.951,610.092z"/>
	<g>
		<path fill="#EF4136" d="M621.619,603.322h-5.895c0.416-0.516,1.293-1.082,2.146-1.633c2.111-1.365,4.736-3.063,4.736-6.074
			c0-2.623-1.838-4.318-4.684-4.318c-2.174,0-3.771,1.053-4.383,2.887c-0.045,0.135-0.068,0.268-0.068,0.393
			c0,0.641,0.521,1.162,1.162,1.162c0.471,0,0.861-0.26,1.072-0.715c0.398-0.865,0.926-1.439,2.217-1.439
			c1.418,0,2.264,0.758,2.264,2.031c0,1.773-1.605,2.818-3.303,3.926c-1.809,1.18-3.855,2.514-3.855,4.943
			c0,0.641,0.521,1.162,1.164,1.162h7.426c0.641,0,1.162-0.521,1.162-1.162S622.26,603.322,621.619,603.322z"/>
		<path fill="#EF4136" d="M632.107,600.34h-0.531v-7.707c0-0.662-0.539-1.201-1.201-1.201c-0.398,0-0.725,0.166-0.982,0.51
			l-6.193,8.848c-0.164,0.227-0.24,0.455-0.24,0.713c0,0.641,0.521,1.162,1.162,1.162h5.053v1.936c0,0.662,0.539,1.201,1.201,1.201
			s1.201-0.539,1.201-1.201v-1.936h0.531c0.662,0,1.182-0.518,1.182-1.182C633.289,600.842,632.77,600.34,632.107,600.34z
			 M629.174,596.244v4.096h-2.854L629.174,596.244z"/>
		<path fill="#EF4136" d="M637.803,591.412c-0.254,0-0.488,0.078-0.707,0.236l-3.012,2.09c-0.322,0.215-0.521,0.594-0.521,0.992
			c0,0.883,1.039,1.518,1.877,0.959l1.162-0.836v9.746c0,0.662,0.539,1.201,1.201,1.201s1.201-0.539,1.201-1.201v-11.986
			C639.004,591.951,638.465,591.412,637.803,591.412z"/>
	</g>
</g>
<g>
	<path fill="#FFFFFF" d="M263.724,697.445c-7.496,0-14.608,2.854-20.027,8.031c-1.929,1.844-3.567,3.928-4.913,6.201l-1.525-6.127
		c-0.304-1.217-1.535-1.959-2.754-1.654c-1.217,0.303-1.957,1.533-1.653,2.75l2.909,11.684c0.301,1.217,1.533,1.957,2.75,1.652
		l11.687-2.906c1.216-0.303,1.952-1.535,1.653-2.754c-0.301-1.217-1.533-1.957-2.755-1.654l-6.337,1.578
		c1.141-1.963,2.553-3.756,4.215-5.346c4.531-4.332,10.479-6.719,16.751-6.719c13.368,0,24.245,10.877,24.245,24.248
		c0,13.369-10.877,24.246-24.245,24.246c-11.137,0-20.806-7.533-23.518-18.316c-0.319-1.271-1.612-2.039-2.874-1.721
		c-1.27,0.32-2.039,1.605-1.721,2.873c3.241,12.895,14.801,21.9,28.112,21.9c15.981,0,28.981-13.002,28.981-28.982
		C292.706,710.447,279.706,697.445,263.724,697.445"/>
	<path fill="#FFFFFF" d="M264.124,738.822c-6.834,0-12.396-5.559-12.396-12.393c0-6.838,5.562-12.396,12.396-12.396
		c6.836,0,12.396,5.559,12.396,12.396C276.52,733.264,270.959,738.822,264.124,738.822 M264.124,718.77
		c-4.223,0-7.658,3.438-7.658,7.66c0,4.221,3.436,7.656,7.658,7.656s7.66-3.436,7.66-7.656
		C271.784,722.207,268.346,718.77,264.124,718.77"/>
</g>
<g>
	<path fill="#FFFFFF" d="M369.715,755.027c-15.913,0-28.859-12.945-28.859-28.859s12.946-28.861,28.859-28.861
		c4.703,0,9.375,1.156,13.507,3.35c1.155,0.613,1.593,2.045,0.981,3.201c-0.611,1.16-2.043,1.596-3.203,0.982
		c-3.45-1.828-7.354-2.795-11.285-2.795c-13.301,0-24.123,10.82-24.123,24.123c0,13.301,10.822,24.123,24.123,24.123
		c13.303,0,24.124-10.822,24.124-24.123c0-2.807-0.475-5.551-1.415-8.164c-0.441-1.232,0.195-2.588,1.426-3.031
		c1.234-0.438,2.588,0.197,3.03,1.428c1.126,3.131,1.696,6.416,1.696,9.768C398.577,742.082,385.63,755.027,369.715,755.027"/>
	<path fill="#FFFFFF" d="M370.021,737.402c-1.308,0-2.368-1.061-2.368-2.369c0-1.311,1.061-2.367,2.368-2.367
		c3.438,0,6.235-2.799,6.235-6.24c0-3.436-2.797-6.232-6.234-6.232s-6.235,2.797-6.237,6.236c0,1.309-1.062,2.369-2.368,2.369
		h-0.002c-1.307-0.004-2.367-1.061-2.367-2.373c0.002-6.047,4.926-10.969,10.975-10.969c6.05,0,10.973,4.918,10.973,10.969
		S376.072,737.402,370.021,737.402"/>
</g>
<g>
	<path fill="#FFFFFF" d="M482.957,723.898h-6.908v-6.908c0-1.254-1.018-2.27-2.27-2.27c-1.254,0-2.271,1.016-2.271,2.27v6.908H464.6
		c-1.252,0-2.27,1.018-2.27,2.27s1.018,2.27,2.27,2.27h6.908v6.908c0,1.254,1.018,2.27,2.271,2.27c1.252,0,2.27-1.016,2.27-2.27
		v-6.908h6.908c1.252,0,2.27-1.018,2.27-2.27S484.209,723.898,482.957,723.898"/>
	<path fill="#FFFFFF" d="M473.779,755.027c-15.914,0-28.859-12.945-28.859-28.861c0-15.914,12.945-28.859,28.859-28.859
		c15.916,0,28.861,12.945,28.861,28.859C502.641,742.082,489.695,755.027,473.779,755.027 M473.779,702.045
		c-13.303,0-24.123,10.82-24.123,24.121c0,13.303,10.82,24.125,24.123,24.125s24.125-10.822,24.125-24.125
		C497.904,712.865,487.082,702.045,473.779,702.045"/>
</g>
<g>
	<path fill="#FFFFFF" d="M569.84,728.438c-1.254,0-2.27-1.018-2.27-2.27c0-1.254,1.016-2.27,2.27-2.27h18.355
		c1.254,0,2.271,1.016,2.271,2.27c0,1.252-1.018,2.27-2.271,2.27H569.84z"/>
	<path fill="#FFFFFF" d="M579.018,755.027c-15.914,0-28.859-12.945-28.859-28.861c0-15.912,12.945-28.859,28.859-28.859
		s28.859,12.947,28.859,28.859C607.877,742.082,594.932,755.027,579.018,755.027 M579.018,702.045
		c-13.303,0-24.123,10.82-24.123,24.121c0,13.303,10.82,24.125,24.123,24.125c13.301,0,24.123-10.822,24.123-24.125
		C603.141,712.865,592.318,702.045,579.018,702.045"/>
</g>
<g>
	<path fill="#FFFFFF" d="M262.743,956.965c-15.913,0-28.859,12.945-28.859,28.859c0,15.916,12.946,28.859,28.859,28.859
		c15.914,0,28.861-12.943,28.861-28.859C291.604,969.91,278.657,956.965,262.743,956.965 M280.007,1002.637v-8.813
		c0-1.309-1.06-2.369-2.368-2.369c-1.31,0-2.369,1.061-2.369,2.369v12.576c-3.656,2.236-7.938,3.547-12.527,3.547
		s-8.871-1.311-12.528-3.547v-12.576c0-1.309-1.06-2.369-2.368-2.369c-1.307,0-2.369,1.061-2.369,2.369v8.813
		c-4.234-4.348-6.857-10.273-6.857-16.813c0-13.301,10.821-24.123,24.123-24.123c13.301,0,24.123,10.822,24.123,24.123
		C286.866,992.363,284.245,998.289,280.007,1002.637"/>
	<path fill="#FFFFFF" d="M270.842,987.932c-0.711-0.707-1.861-0.707-2.569,0l-3.716,3.715v-16.033c0-1-0.813-1.811-1.813-1.811
		c-1.002,0-1.815,0.811-1.815,1.811v16.033l-3.715-3.715c-0.709-0.707-1.86-0.707-2.568,0c-0.711,0.711-0.711,1.859,0,2.568
		l6.814,6.814l0,0c0.168,0.168,0.367,0.303,0.59,0.391c0.209,0.09,0.432,0.127,0.654,0.135c0.012,0,0.025,0.008,0.04,0.008
		c0.005,0,0.008-0.002,0.013-0.002c0.23-0.004,0.462-0.049,0.682-0.141c0.205-0.082,0.389-0.211,0.55-0.365
		c0.013-0.01,0.028-0.012,0.041-0.025l6.813-6.814C271.55,989.791,271.55,988.643,270.842,987.932"/>
</g>
<g>
	<path fill="#FFFFFF" d="M369.715,956.965c-15.914,0-28.859,12.947-28.859,28.859c0,15.916,12.945,28.861,28.859,28.861
		s28.861-12.945,28.861-28.861C398.577,969.912,385.629,956.965,369.715,956.965 M386.979,1002.639v-8.814
		c0-1.307-1.059-2.367-2.367-2.367c-1.311,0-2.369,1.061-2.369,2.367v12.578c-3.656,2.234-7.938,3.547-12.527,3.547
		s-8.871-1.313-12.529-3.547v-12.578c0-1.307-1.059-2.367-2.368-2.367c-1.307,0-2.368,1.061-2.368,2.367v8.814
		c-4.236-4.348-6.857-10.275-6.857-16.814c0-13.301,10.82-24.123,24.123-24.123c13.301,0,24.124,10.822,24.124,24.123
		C393.839,992.363,391.217,998.291,386.979,1002.639"/>
	<path fill="#FFFFFF" d="M377.814,981.148L371,974.338c-0.002-0.004-0.002-0.004-0.002-0.004c-0.166-0.166-0.367-0.299-0.589-0.393
		c-0.214-0.086-0.439-0.129-0.667-0.131c-0.01,0-0.018-0.008-0.027-0.008c-0.009,0-0.018,0.008-0.027,0.008
		c-0.227,0.002-0.453,0.045-0.666,0.131c-0.21,0.09-0.395,0.217-0.556,0.371c-0.011,0.01-0.026,0.012-0.034,0.025l-6.815,6.811
		c-0.71,0.711-0.71,1.859,0,2.57c0.708,0.709,1.859,0.709,2.569,0l3.717-3.717v16.033c0,1.004,0.811,1.814,1.813,1.814
		c1.001,0,1.816-0.811,1.816-1.814v-16.029l3.713,3.713c0.707,0.709,1.859,0.709,2.569,0
		C378.523,983.008,378.523,981.859,377.814,981.148"/>
</g>
<g>
	<path fill="#FFFFFF" d="M270.838,860.82l-4.885-4.885l4.885-4.885c0.887-0.887,0.887-2.324,0-3.209
		c-0.887-0.889-2.324-0.889-3.209,0l-4.887,4.885l-4.885-4.885c-0.887-0.889-2.322-0.889-3.21,0c-0.885,0.885-0.885,2.322,0,3.209
		l4.886,4.885l-4.886,4.885c-0.885,0.889-0.885,2.322,0,3.211c0.888,0.885,2.323,0.885,3.21,0l4.885-4.885l4.887,4.885
		c0.885,0.885,2.322,0.885,3.209,0C271.725,863.143,271.725,861.709,270.838,860.82"/>
	<path fill="#FFFFFF" d="M262.743,884.795c-15.913,0-28.858-12.945-28.858-28.861c0-15.914,12.945-28.859,28.858-28.859
		c15.916,0,28.861,12.945,28.861,28.859C291.604,871.85,278.659,884.795,262.743,884.795 M262.743,831.813
		c-13.301,0-24.121,10.82-24.121,24.121c0,13.303,10.82,24.125,24.121,24.125c13.303,0,24.125-10.822,24.125-24.125
		C286.868,842.633,276.045,831.813,262.743,831.813"/>
</g>
<g>
	<path fill="#FFFFFF" d="M475.217,856.141c1.1,0,1.99-0.891,1.99-1.988c0-1.102-0.891-1.992-1.99-1.992s-1.992,0.891-1.992,1.992
		C473.225,855.25,474.117,856.141,475.217,856.141"/>
	<path fill="#FFFFFF" d="M481.775,856.141c1.098,0,1.988-0.891,1.988-1.988c0-1.102-0.891-1.992-1.988-1.992
		c-1.1,0-1.99,0.891-1.99,1.992C479.785,855.25,480.676,856.141,481.775,856.141"/>
	<path fill="#FFFFFF" d="M488.33,856.141c1.1,0,1.99-0.891,1.99-1.988c0-1.102-0.891-1.992-1.99-1.992s-1.99,0.891-1.99,1.992
		C486.34,855.25,487.23,856.141,488.33,856.141"/>
	<path fill="#FFFFFF" d="M502.641,853.826c0-1.73-0.324-3.402-0.916-4.977c-3.17-12.492-14.48-21.775-27.943-21.775
		c-15.914,0-28.861,12.947-28.861,28.861s12.947,28.859,28.861,28.859c15.912,0,28.859-12.945,28.859-28.859
		c0-0.395-0.043-0.777-0.059-1.166C502.604,854.455,502.641,854.145,502.641,853.826 M470.064,862.82l-0.525-0.391
		c-2.975-2.336-4.615-5.391-4.615-8.604c0-6.857,7.398-12.436,16.49-12.436c7.432,0,13.723,3.727,15.777,8.83
		c0.357,1.459,0.576,2.965,0.65,4.512c-0.619,6.436-7.74,11.527-16.428,11.527c-0.916,0-1.838-0.055-2.736-0.172
		c-0.1-0.01-0.197-0.018-0.293-0.018h-0.623h-0.01c-0.385,0-0.764,0.094-1.105,0.273l-6.396,3.383l0.732-4.639
		C471.123,864.223,470.768,863.348,470.064,862.82 M473.781,880.059c-13.301,0-24.123-10.822-24.123-24.123
		c0-13.303,10.822-24.123,24.123-24.123c6.25,0,11.938,2.412,16.227,6.326c-2.629-0.947-5.535-1.484-8.594-1.484
		c-11.705,0-21.229,7.705-21.229,17.172c0,4.48,2.076,8.67,5.9,11.898l-1.256,7.941c-0.141,0.887,0.232,1.775,0.959,2.297
		c0.412,0.293,0.896,0.439,1.379,0.439c0.381,0,0.76-0.09,1.107-0.273l10.045-5.313c1.021,0.123,2.061,0.18,3.094,0.18
		c5.307,0,10.154-1.592,13.881-4.209C491.314,874.646,483.178,880.059,473.781,880.059"/>
</g>
<g>
	<path fill="#FFFFFF" d="M579.016,827.074c-15.912,0-28.859,12.947-28.859,28.859c0,15.916,12.947,28.861,28.859,28.861
		c15.914,0,28.861-12.945,28.861-28.861C607.877,840.021,594.93,827.074,579.016,827.074 M575.541,852.793
		c0.004,1.029,0.475,3.543,3.6,8.791c3.1,5.199,5.094,6.83,6.004,7.336l1.484,0.828l2.953-2.695
		c0.096-0.059,0.203-0.088,0.459-0.068c0.121,0.029,0.252,0.088,0.465,0.408l3.965,5.189c0.178,0.367,0.061,0.803-0.227,0.984
		l-4.471,3.104c-0.08,0.051-0.617,0.141-1.34-0.039c-3.535-0.895-9.512-5.566-13.625-12.463c-2.404-4.043-4.02-8.584-4.557-12.795
		c-0.484-3.787,0.139-5.992,0.639-6.295l4.992-2.525c0.053-0.029,0.123-0.047,0.195-0.047c0.053,0,0.107,0.008,0.17,0.023
		c0.229,0.059,0.412,0.193,0.555,0.412l2.723,6.051c0.143,0.258,0.084,0.561-0.133,0.744l-3.855,1.381L575.541,852.793z
		 M598.502,870.096c-0.074-0.129-0.16-0.254-0.254-0.377l-3.871-5.049c-0.732-1.135-1.859-1.943-3.176-2.275
		c-1.357-0.346-2.824-0.135-4.063,0.598c-0.211,0.133-0.418,0.283-0.609,0.455l-0.215,0.197c-0.711-0.83-1.756-2.227-3.104-4.482
		c-1.352-2.268-2.082-3.85-2.473-4.861l0.291-0.102c0.258-0.094,0.492-0.205,0.701-0.332c2.48-1.479,3.348-4.594,2.035-6.984
		l-2.658-5.914c-0.063-0.148-0.137-0.297-0.234-0.463c-0.752-1.264-2.018-2.201-3.467-2.572c-1.295-0.322-2.742-0.133-3.75,0.438
		l-4.961,2.512l-0.18,0.102c-3.355,2.002-3.463,7.08-2.963,10.988c0.613,4.836,2.457,10.025,5.188,14.617
		c3.768,6.318,8.662,10.738,12.746,13.037c-1.455,0.275-2.943,0.432-4.471,0.432c-13.301,0-24.121-10.822-24.121-24.125
		c0-13.301,10.82-24.121,24.121-24.121c13.303,0,24.123,10.82,24.123,24.121C603.139,861.229,601.406,866.115,598.502,870.096"/>
</g>
<g>
	<path fill="#FFFFFF" d="M369.715,885c-15.914,0-28.859-12.945-28.859-28.861c0-15.912,12.945-28.859,28.859-28.859
		s28.861,12.947,28.861,28.859C398.577,872.055,385.629,885,369.715,885 M369.715,832.018c-13.303,0-24.123,10.82-24.123,24.121
		c0,13.303,10.82,24.125,24.123,24.125c13.301,0,24.123-10.822,24.123-24.125C393.838,842.838,383.016,832.018,369.715,832.018"/>
	<path fill="#FFFFFF" d="M370.926,866.531c-0.811,0.957-2.242,1.076-3.197,0.268c-0.957-0.811-1.076-2.242-0.266-3.199
		l12.408-14.695c0.811-0.955,2.243-1.076,3.197-0.264c0.959,0.809,1.078,2.242,0.269,3.197L370.926,866.531z"/>
	<path fill="#FFFFFF" d="M370.788,863.461l-8.197-8.258c-0.887-0.885-2.325-0.885-3.213,0c-0.886,0.889-0.886,2.324,0,3.213
		l8.201,8.254c0.885,0.887,2.322,0.887,3.209,0S371.674,864.348,370.788,863.461"/>
</g>
<path fill="#FFFFFF" d="M579.016,1086.652c-15.912,0-28.859,12.945-28.859,28.859c0,15.916,12.947,28.859,28.859,28.859
	c15.918,0,28.863-12.943,28.863-28.859C607.879,1099.598,594.934,1086.652,579.016,1086.652z M555.938,1122.516l15.887,0.852
	l0.826,15.387C564.676,1136.566,558.336,1130.4,555.938,1122.516z M576.441,1120.988c-0.064-1.207-1.031-2.174-2.238-2.238
	l-8.814-0.473l18.105-6.58l-6.582,18.107L576.441,1120.988z M579.016,1139.635c-0.209,0-0.412-0.025-0.621-0.031l11.287-31.055
	c0.313-0.865,0.098-1.834-0.553-2.484s-1.621-0.867-2.486-0.551l-31.67,11.512c-0.033-0.506-0.078-1.006-0.078-1.514
	c0-13.301,10.822-24.123,24.121-24.123c13.305,0,24.127,10.822,24.127,24.123S592.32,1139.635,579.016,1139.635z"/>
<path fill="#FFFFFF" d="M262.741,1215.879c-15.914,0-28.859,12.949-28.859,28.863c0,15.91,12.945,28.859,28.859,28.859
	c15.916,0,28.863-12.949,28.863-28.859C291.604,1228.828,278.657,1215.879,262.741,1215.879 M278.02,1226.09h-8.078
	c-1.006,0-1.816,0.813-1.818,1.814c0.002,1.004,0.813,1.816,1.818,1.818h5.252l-12.453,12.451l-12.451-12.451h5.252
	c1.002,0,1.816-0.814,1.816-1.818c0-1.002-0.811-1.814-1.816-1.814h-8.076c4.164-3.418,9.484-5.475,15.275-5.475
	C268.536,1220.615,273.856,1222.672,278.02,1226.09 M262.741,1244.744L262.741,1244.744v-0.002V1244.744z M238.618,1244.742
	c0-5.795,2.057-11.115,5.471-15.277v8.076c0.004,1.006,0.814,1.818,1.816,1.818c1.006,0,1.816-0.816,1.816-1.818l0.004-5.252
	l12.449,12.453l0,0l-12.449,12.451v-5.254c0-1-0.814-1.816-1.816-1.816c-1.006,0-1.816,0.814-1.816,1.816v8.08
	C240.674,1255.855,238.618,1250.533,238.618,1244.742 M247.465,1263.395h8.076c1.006,0,1.816-0.813,1.816-1.816
	s-0.814-1.818-1.816-1.818h-5.254l12.453-12.451l12.449,12.449h-5.25c-1.004,0-1.816,0.814-1.816,1.816
	c0,1.004,0.813,1.816,1.816,1.816h8.08c-4.164,3.418-9.484,5.475-15.279,5.475C256.95,1268.865,251.629,1266.809,247.465,1263.395
	 M281.393,1260.02v-8.08c0-1.006-0.814-1.82-1.816-1.82s-1.816,0.818-1.816,1.82v5.254l-12.453-12.451l12.453-12.453v5.252
	c0,1.002,0.814,1.816,1.816,1.818c1.006-0.002,1.816-0.816,1.816-1.818v-8.08c3.416,4.166,5.473,9.486,5.473,15.281
	C286.866,1250.533,284.809,1255.855,281.393,1260.02"/>
<g>
	<path fill="#FFFFFF" d="M398.577,1244.246c0-15.914-12.945-28.859-28.863-28.859c-15.914,0-28.859,12.945-28.859,28.859
		c0,15.916,12.945,28.861,28.859,28.861h0.004l0,0l0,0C385.631,1273.105,398.577,1260.158,398.577,1244.246z M360.436,1242.838
		c0-5.119,4.164-9.279,9.281-9.279c5.115,0,9.277,4.16,9.277,9.279c0,1.529-0.377,3.043-1.154,4.498l-0.275,0.592
		c-0.012,0.025-0.029,0.045-0.039,0.068l-0.658,1.436l-0.002,0.004l-7.148,15.611l-7.979-17.451
		c-0.055-0.125-0.127-0.236-0.201-0.342l0.012-0.008C360.823,1245.898,360.436,1244.375,360.436,1242.838z M373.559,1268.033
		l7.91-17.273l0.605-1.305c1.082-2.02,1.656-4.309,1.656-6.617c0-7.727-6.285-14.016-14.014-14.016
		c-7.73,0-14.018,6.289-14.018,14.016c0,2.32,0.584,4.625,1.682,6.66l0.021-0.012c0.012,0.027,0.014,0.055,0.027,0.08l8.443,18.469
		c-11.479-1.848-20.283-11.795-20.283-23.789c0-13.301,10.822-24.123,24.123-24.123c13.305,0,24.127,10.822,24.127,24.123
		C393.84,1256.238,385.038,1266.184,373.559,1268.033z"/>
	<path fill="#FFFFFF" d="M369.717,1249.609c3.227,0,5.854-2.627,5.854-5.857c0-3.225-2.627-5.852-5.854-5.852
		c-3.229,0-5.854,2.627-5.854,5.852C363.864,1246.982,366.489,1249.609,369.717,1249.609z M369.717,1241.057
		c1.486,0,2.695,1.211,2.695,2.695c0,1.488-1.209,2.699-2.695,2.699c-1.488,0-2.695-1.211-2.695-2.699
		C367.022,1242.268,368.229,1241.057,369.717,1241.057z"/>
</g>
<path fill="#FFFFFF" d="M474.883,1604.746c-15.912,0-28.859,12.943-28.859,28.857c0,15.916,12.947,28.861,28.859,28.861
	c15.918,0,28.863-12.945,28.863-28.861C503.746,1617.689,490.801,1604.746,474.883,1604.746z M458.396,1650.053v-8.143l8.207-0.066
	l-0.064,8.209H458.396z M476.098,1609.543c2.545,0.127,4.982,0.645,7.258,1.506l-8.959,8.918l-11.916,3.145L476.098,1609.543z
	 M468.348,1638.338l-9.951,0.08v-10.619l15.012-3.963l-0.887,10.199c-0.047,0.523,0.133,1.02,0.525,1.406
	c0.377,0.365,0.9,0.543,1.424,0.479l9.797-1.186l-3.65,15.318h-10.588l0.08-9.955
	C470.119,1639.162,469.287,1638.328,468.348,1638.338z M488.133,1633.586l9.086-9.066c0.984,2.402,1.57,5.002,1.721,7.721
	l-13.805,13.92L488.133,1633.586z M495.559,1621.238l-9.816,9.801l-9.555,1.156l0.867-9.949l9.678-9.633
	C490.371,1614.676,493.41,1617.658,495.559,1621.238z M450.762,1633.604c0-11.92,8.701-21.824,20.082-23.756l-15.43,15.371
	c-0.053,0.055-0.076,0.127-0.123,0.186c-0.07,0.092-0.135,0.18-0.189,0.285c-0.047,0.098-0.076,0.199-0.105,0.307
	c-0.031,0.111-0.059,0.217-0.066,0.334c-0.002,0.041-0.023,0.08-0.023,0.123v20.654
	C452.291,1643.25,450.762,1638.604,450.762,1633.604z M474.883,1657.729c-5.023,0-9.689-1.547-13.557-4.184h6.928
	c0.002,0,0.002,0,0.002,0c0.004,0,0.004,0,0.006,0h13.734c0.049,0,0.092-0.025,0.141-0.029c0.119-0.01,0.225-0.035,0.336-0.068
	c0.109-0.029,0.207-0.063,0.303-0.111c0.105-0.053,0.195-0.119,0.287-0.189c0.053-0.043,0.121-0.064,0.166-0.113l15.441-15.563
	C496.811,1648.936,486.867,1657.729,474.883,1657.729z"/>
<path fill="#FFFFFF" d="M579.018,1475.25c-15.914,0-28.861,12.943-28.861,28.857c0,15.916,12.947,28.861,28.861,28.861
	c15.916,0,28.863-12.945,28.863-28.861C607.881,1488.193,594.934,1475.25,579.018,1475.25z M589.604,1485.783
	c0,2.316-1.885,4.199-4.195,4.199c-2.316,0-4.201-1.883-4.201-4.199c0-2.313,1.885-4.197,4.201-4.197
	C587.719,1481.586,589.604,1483.471,589.604,1485.783z M579.018,1479.986c0.215,0,0.426,0.025,0.641,0.033
	c-1.48,1.475-2.398,3.516-2.398,5.764c0,0.314,0.057,0.609,0.092,0.914l-11.67,6.709c-1.4-0.906-3.063-1.438-4.848-1.438
	c-1.031,0-2.014,0.182-2.934,0.502C562.014,1485.037,569.934,1479.986,579.018,1479.986z M560.834,1495.916
	c2.756,0,4.998,2.242,4.998,5s-2.242,5-4.998,5c-2.758,0-5.002-2.242-5.002-5S558.076,1495.916,560.834,1495.916z M555.219,1507.873
	c1.537,1.242,3.49,1.992,5.615,1.992c2,0,3.842-0.668,5.336-1.783l5.775,4.547c-0.729,1.602-1.145,3.373-1.145,5.242
	c0,4.141,2.002,7.814,5.076,10.133C565.299,1526.619,556.875,1518.367,555.219,1507.873z M583.498,1526.623
	c-4.826,0-8.75-3.926-8.75-8.752c0-4.824,3.924-8.75,8.75-8.75s8.752,3.926,8.752,8.75
	C592.25,1522.697,588.324,1526.623,583.498,1526.623z M595.652,1521.537c0.352-1.162,0.545-2.393,0.545-3.666
	c0-7.002-5.697-12.697-12.699-12.697c-3.709,0-7.041,1.607-9.363,4.152l-5.391-4.242c0.66-1.246,1.035-2.662,1.035-4.168
	c0-1.676-0.471-3.24-1.273-4.582l10.24-5.885c1.473,2.098,3.904,3.48,6.662,3.48c4.49,0,8.143-3.652,8.143-8.146
	c0-0.326-0.059-0.637-0.096-0.955c5.867,4.406,9.688,11.395,9.688,19.279C603.143,1510.961,600.256,1517.141,595.652,1521.537z"/>
<g>
	<path fill="#FFFFFF" d="M370.822,1475.25c-15.913,0-28.859,12.943-28.859,28.857c0,15.916,12.946,28.861,28.859,28.861
		c15.918,0,28.864-12.945,28.864-28.861C399.686,1488.193,386.74,1475.25,370.822,1475.25z M346.7,1504.107
		c0-13.301,10.821-24.121,24.122-24.121c2.122,0,4.174,0.303,6.135,0.82c-9.718,3.295-16.739,12.486-16.739,23.301
		c0,10.818,7.021,20.008,16.739,23.305c-1.961,0.518-4.013,0.82-6.135,0.82C357.521,1528.232,346.7,1517.41,346.7,1504.107z
		 M383.32,1524.705c-10.69-0.783-19.155-9.711-19.155-20.598c0-10.885,8.465-19.811,19.155-20.594
		c6.957,4.236,11.629,11.869,11.629,20.594C394.949,1512.834,390.277,1520.469,383.32,1524.705z"/>
	<path fill="#FFFFFF" d="M388.247,1490.266c0-1.09-0.885-1.973-1.973-1.973c-1.093,0-1.975,0.883-1.975,1.973v13.025l-11.67,11.67
		c-0.771,0.771-0.771,2.021,0,2.793c0.387,0.385,0.889,0.578,1.396,0.578c0.505,0,1.011-0.193,1.396-0.578l12.247-12.248
		c0.183-0.184,0.327-0.4,0.426-0.643c0.102-0.242,0.153-0.498,0.153-0.754V1490.266z"/>
</g>
<path fill="#FFFFFF" d="M262.743,1475.25c-15.914,0-28.86,12.943-28.86,28.857c0,15.916,12.946,28.861,28.86,28.861
	s28.859-12.945,28.859-28.861C291.602,1488.193,278.657,1475.25,262.743,1475.25z M248.704,1507.619h-0.697l14.736-14.734
	l14.735,14.732h-1.045c-1.089,0-1.975,0.885-1.975,1.973v15.59c-1.325,0.74-2.729,1.354-4.194,1.836v-12.85
	c0-1.09-0.881-1.973-1.973-1.973h-11.029c-1.092,0-1.975,0.883-1.975,1.973v12.875c-1.621-0.529-3.16-1.232-4.609-2.074v-15.373
	C250.678,1508.502,249.792,1507.619,248.704,1507.619z M259.237,1527.949v-11.809h7.08v11.797c-1.169,0.176-2.356,0.295-3.574,0.295
	C261.549,1528.232,260.383,1528.117,259.237,1527.949z M278.407,1522.42v-10.855h3.833c0.26,0,0.516-0.051,0.756-0.152
	c0.481-0.201,0.866-0.584,1.067-1.066c0.199-0.484,0.199-1.025,0-1.508c-0.1-0.242-0.244-0.463-0.426-0.643l-19.5-19.498
	c-0.74-0.74-2.052-0.74-2.791,0l-19.496,19.498c-0.183,0.18-0.327,0.4-0.428,0.643c-0.096,0.23-0.141,0.477-0.146,0.725
	c0,0.01-0.005,0.018-0.005,0.027l0,0c0,0.258,0.054,0.516,0.151,0.756c0.201,0.482,0.586,0.865,1.067,1.066
	c0.235,0.098,0.483,0.145,0.733,0.148c0.006,0,0.013,0.004,0.021,0.004h3.487v10.537c-4.963-4.424-8.111-10.84-8.111-17.994
	c0-13.301,10.821-24.121,24.123-24.121c13.301,0,24.123,10.82,24.123,24.121C286.866,1511.432,283.575,1517.99,278.407,1522.42z"/>
<g>
	<path fill="#FFFFFF" d="M340.856,1374.426c0,15.914,12.947,28.859,28.859,28.859c15.916,0,28.861-12.945,28.861-28.859
		s-12.945-28.859-28.861-28.859C353.803,1345.566,340.856,1358.512,340.856,1374.426 M386.53,1357.162h-8.814
		c-1.307,0-2.367,1.059-2.367,2.367c0,1.311,1.061,2.369,2.367,2.369h12.576c2.236,3.658,3.549,7.939,3.549,12.527
		c0,4.59-1.313,8.873-3.549,12.529h-12.576c-1.307,0-2.367,1.059-2.367,2.369c0,1.305,1.061,2.367,2.367,2.367h8.814
		c-4.35,4.234-10.275,6.857-16.814,6.857c-13.301,0-24.121-10.822-24.121-24.123s10.82-24.123,24.121-24.123
		C376.254,1350.303,382.182,1352.924,386.53,1357.162"/>
	<path fill="#FFFFFF" d="M371.825,1366.326c-0.709,0.713-0.709,1.859,0,2.57l3.715,3.717h-16.033c-1.002,0-1.813,0.813-1.813,1.813
		c0,1.002,0.811,1.813,1.813,1.813h16.031l-3.713,3.717c-0.709,0.711-0.709,1.859,0,2.57c0.709,0.709,1.857,0.709,2.568,0
		l6.813-6.816c0,0,0,0,0.002,0c0.168-0.166,0.301-0.367,0.391-0.59c0.088-0.209,0.127-0.432,0.135-0.654
		c0-0.012,0.006-0.023,0.006-0.039c0-0.004-0.002-0.008-0.002-0.012c-0.002-0.232-0.047-0.463-0.139-0.682
		c-0.084-0.207-0.211-0.389-0.365-0.551c-0.01-0.014-0.014-0.027-0.027-0.041l-6.813-6.814
		C373.682,1365.619,372.534,1365.619,371.825,1366.326"/>
</g>
<g>
	<path fill="#FFFFFF" d="M291.602,1374.426c0-15.914-12.945-28.859-28.859-28.859s-28.861,12.945-28.861,28.859
		s12.947,28.859,28.861,28.859S291.602,1390.34,291.602,1374.426 M245.928,1391.691h8.814c1.307,0,2.367-1.061,2.367-2.369
		c0-1.311-1.061-2.369-2.367-2.369h-12.576c-2.234-3.656-3.547-7.939-3.547-12.527c0-4.59,1.313-8.873,3.547-12.529h12.576
		c1.307,0,2.367-1.059,2.367-2.367c0-1.307-1.061-2.369-2.367-2.369h-8.814c4.35-4.234,10.277-6.857,16.814-6.857
		c13.303,0,24.123,10.822,24.123,24.123s-10.82,24.123-24.123,24.123C256.206,1398.549,250.276,1395.928,245.928,1391.691"/>
	<path fill="#FFFFFF" d="M260.635,1382.525c0.709-0.711,0.709-1.859,0-2.57l-3.715-3.717h16.031c1.002,0,1.813-0.813,1.813-1.813
		c0-1.002-0.811-1.813-1.813-1.813H256.92l3.715-3.717c0.709-0.711,0.709-1.859,0-2.57c-0.711-0.709-1.859-0.709-2.57,0
		l-6.813,6.816c0,0,0,0-0.002,0c-0.166,0.166-0.301,0.367-0.391,0.59c-0.088,0.209-0.127,0.432-0.133,0.654
		c0,0.012-0.008,0.023-0.008,0.039c0,0.004,0.004,0.008,0.004,0.012c0,0.232,0.047,0.463,0.137,0.682
		c0.084,0.207,0.213,0.389,0.365,0.551c0.012,0.014,0.014,0.027,0.027,0.041l6.813,6.814
		C258.776,1383.232,259.924,1383.232,260.635,1382.525"/>
</g>
<g>
	<path fill="#FFFFFF" d="M579.016,1345.566c-15.912,0-28.859,12.945-28.859,28.859c0,15.916,12.947,28.861,28.859,28.861
		c15.916,0,28.865-12.945,28.865-28.861C607.881,1358.512,594.932,1345.566,579.016,1345.566z M564.873,1393.926v-16.762h2.17
		h23.949h2.172v16.762c-3.98,2.895-8.859,4.625-14.148,4.625C573.73,1398.551,568.852,1396.82,564.873,1393.926z M587.045,1373.217
		h-16.053v-5.051c0-4.244,3.6-7.699,8.023-7.699c4.428,0,8.029,3.455,8.029,7.699V1373.217z M597.111,1390.33v-15.141
		c0-1.09-0.885-1.973-1.975-1.973h-4.145v-5.051c0-6.422-5.373-11.646-11.977-11.646c-6.6,0-11.973,5.225-11.973,11.646v5.051
		h-4.145c-1.09,0-1.975,0.883-1.975,1.973v15.141c-3.74-4.252-6.029-9.809-6.029-15.904c0-13.303,10.82-24.123,24.121-24.123
		c13.305,0,24.127,10.82,24.127,24.123C603.143,1380.521,600.854,1386.078,597.111,1390.33z"/>
	<path fill="#FFFFFF" d="M583.26,1387.625c0-2.344-1.898-4.244-4.244-4.244c-2.342,0-4.242,1.9-4.242,4.244
		c0,1.465,0.744,2.756,1.873,3.518l-0.875,4.945c-0.063,0.35,0.035,0.709,0.262,0.98c0.23,0.275,0.566,0.432,0.924,0.432h4.104
		c0.006-0.002,0.012,0,0.018,0c0.666,0,1.203-0.537,1.203-1.203c0-0.146-0.025-0.287-0.074-0.416l-0.836-4.727
		C582.51,1390.393,583.26,1389.098,583.26,1387.625z"/>
</g>
<path fill="#FFFFFF" d="M475.219,1345.566c-15.914,0-28.861,12.945-28.861,28.859c0,15.916,12.947,28.861,28.861,28.861
	s28.861-12.945,28.861-28.861C504.08,1358.512,491.133,1345.566,475.219,1345.566z M472.643,1398.408v-16.119
	c0-1.09-0.883-1.975-1.975-1.975c-1.09,0-1.973,0.885-1.973,1.975v15.34c-1.707-0.48-3.344-1.127-4.875-1.953V1374.9h22.797v20.775
	c-1.531,0.826-3.17,1.473-4.877,1.953v-15.34c0-1.09-0.883-1.975-1.973-1.975s-1.975,0.885-1.975,1.975v16.119
	c-0.848,0.092-1.705,0.143-2.574,0.143C474.348,1398.551,473.488,1398.5,472.643,1398.408z M478.77,1370.953h-7.934
	c0.025-0.125,0.076-0.242,0.076-0.377v-3.197h7.857V1370.953z M490.564,1393.025V1374.9h2.861c1.09,0,1.975-0.883,1.975-1.973
	s-0.885-1.975-1.975-1.975h-3.379h-1.455h-5.875v-5.547c0-1.09-0.883-1.975-1.973-1.975h-11.805c-1.092,0-1.975,0.885-1.975,1.975
	v5.17c0,0.135,0.051,0.252,0.076,0.377h-10.029c-1.092,0-1.975,0.885-1.975,1.975s0.883,1.973,1.975,1.973h2.859v18.125
	c-5.355-4.43-8.777-11.123-8.777-18.6c0-13.303,10.822-24.123,24.125-24.123c13.301,0,24.123,10.82,24.123,24.123
	C499.342,1381.902,495.922,1388.596,490.564,1393.025z"/>
<g>
	<path fill="#FFFFFF" d="M579.018,1215.881c-15.914,0-28.859,12.943-28.859,28.857c0,15.916,12.945,28.861,28.859,28.861
		s28.861-12.945,28.861-28.861C607.879,1228.824,594.932,1215.881,579.018,1215.881z M554.895,1244.738
		c0-13.301,10.822-24.121,24.123-24.121s24.125,10.82,24.125,24.121c0,4.121-1.041,8.002-2.869,11.398l-8.512-7.771
		c1.193-4.57-0.094-9.387-3.477-12.773c-4.039-4.037-8.988-5.645-13.232-4.297c-0.762,0.238-1.457,0.836-1.818,1.568
		c-0.537,1.102-0.533,2.33,0.936,6.334c0.277,0.75,0.852,1.361,1.578,1.68l0.209,0.074c1.225,0.332,2.609,0.875,2.859,1.086
		c0.297,0.389,0.598,1.949,0.479,2.387c-0.123,0.287-0.756,0.92-1.018,1.033c-0.48,0.143-1.967-0.117-2.303-0.371
		c-0.264-0.303-0.826-1.699-1.207-2.984l-0.064-0.174c-0.318-0.73-0.93-1.309-1.682-1.586c-2.293-0.838-3.926-1.264-4.852-1.264
		c-1.166,0-2.625,0.803-3.049,2.143c-1.346,4.258,0.264,9.207,4.301,13.236c3.318,3.322,8.238,4.635,12.77,3.475l7.639,8.363
		c-3.256,1.639-6.926,2.568-10.813,2.568C565.717,1268.863,554.895,1258.041,554.895,1244.738z M592.48,1264.748l-9.367-10.256
		l-0.928,0.314c-3.652,1.236-7.932,0.242-10.645-2.473c-3.203-3.199-4.539-6.98-3.582-10.135c0.057-0.051,0.168-0.113,0.211-0.121
		c0.43,0,1.773,0.334,3.771,1.045c0.385,1.273,1.111,3.342,1.969,4.139c1.148,1.063,3.891,1.482,5.244,1.064
		c1.156-0.354,2.641-1.836,2.998-2.996c0.43-1.404-0.07-4.01-0.988-5.16c-0.76-0.957-2.863-1.676-4.193-2.051
		c-1.125-3.072-1.082-3.791-1.018-3.961c3.164-1.006,6.98,0.326,10.211,3.555c2.805,2.809,3.75,6.885,2.471,10.641l-0.316,0.93
		l10.338,9.439C596.975,1261.08,594.883,1263.127,592.48,1264.748z"/>
</g>
<g>
	<path fill="#FFFFFF" d="M579.016,956.967c-15.912,0-28.859,12.945-28.859,28.859s12.947,28.859,28.859,28.859
		c15.918,0,28.863-12.945,28.863-28.859S594.934,956.967,579.016,956.967z M554.893,985.826c0-13.303,10.822-24.123,24.123-24.123
		c13.305,0,24.127,10.82,24.127,24.123c0,1.564-0.162,3.09-0.447,4.574l-5.379-9.311c-0.746-1.291-1.986-2.064-3.316-2.064
		c-1.238,0-2.4,0.656-3.189,1.799l-11.238,16.258l-3.318-3.779c-0.836-0.951-1.938-1.475-3.098-1.475
		c-1.412,0-2.717,0.793-3.484,2.121l-6.029,10.447C558.301,999.969,554.893,993.287,554.893,985.826z M579.016,1009.949
		c-4.215,0-8.178-1.096-11.631-3.004l5.887-10.197l3.145,3.59c0.842,0.951,2.008,1.5,3.201,1.5c1.367,0,2.629-0.686,3.461-1.885
		l10.854-15.705l6.863,11.887C596.92,1004.287,588.629,1009.949,579.016,1009.949z"/>
	<path fill="#FFFFFF" d="M575.125,986.596c4.061,0,7.363-3.303,7.363-7.363c0-4.059-3.303-7.361-7.363-7.361
		s-7.365,3.303-7.365,7.361C567.76,983.293,571.064,986.596,575.125,986.596z M575.125,975.363c2.133,0,3.871,1.736,3.871,3.869
		c0,2.135-1.738,3.871-3.871,3.871c-2.135,0-3.867-1.736-3.867-3.871C571.258,977.1,572.99,975.363,575.125,975.363z"/>
</g>
<g>
	<path fill="#FFFFFF" d="M369.715,1144.373c-15.914,0-28.859-12.947-28.859-28.863c0-15.912,12.945-28.859,28.859-28.859
		s28.86,12.947,28.86,28.859C398.576,1131.426,385.629,1144.373,369.715,1144.373 M369.715,1091.387
		c-13.302,0-24.123,10.824-24.123,24.123c0,13.305,10.821,24.125,24.123,24.125c13.303,0,24.123-10.82,24.123-24.125
		C393.838,1102.211,383.018,1091.387,369.715,1091.387"/>
	<g>
		<path fill="#FFFFFF" d="M369.715,1124.836c1.779,0,3.23,1.453,3.23,3.23s-1.451,3.229-3.23,3.229
			c-1.777,0-3.229-1.451-3.229-3.229S367.938,1124.836,369.715,1124.836z M367.094,1119.174v-17.596
			c0-1.732,1.124-2.764,2.621-2.764c1.498,0,2.622,1.031,2.622,2.764v17.596c0,1.781-1.124,2.809-2.622,2.809
			C368.218,1121.982,367.094,1120.955,367.094,1119.174z"/>
	</g>
</g>
<g>
	<path fill="#FFFFFF" d="M475.217,1143.916c-15.914,0-28.859-12.947-28.859-28.863c0-15.912,12.945-28.859,28.859-28.859
		c15.916,0,28.859,12.947,28.859,28.859C504.076,1130.969,491.133,1143.916,475.217,1143.916 M475.217,1090.93
		c-13.301,0-24.123,10.824-24.123,24.123c0,13.305,10.822,24.125,24.123,24.125s24.123-10.82,24.123-24.125
		C499.34,1101.754,488.518,1090.93,475.217,1090.93"/>
	<g>
		<path fill="#FFFFFF" d="M475.229,1105.273c-1.779,0-3.23-1.451-3.23-3.232c0-1.777,1.451-3.229,3.23-3.229
			c1.777,0,3.229,1.451,3.229,3.229C478.457,1103.822,477.006,1105.273,475.229,1105.273z M477.848,1110.936v17.598
			c0,1.73-1.123,2.762-2.619,2.762c-1.498,0-2.621-1.031-2.621-2.762v-17.598c0-1.777,1.123-2.809,2.621-2.809
			C476.725,1108.127,477.848,1109.158,477.848,1110.936z"/>
	</g>
</g>
<g>
	<path fill="#FFFFFF" d="M262.741,1144.373c-15.912,0-28.857-12.951-28.857-28.863c0-15.914,12.945-28.859,28.857-28.859
		c15.916,0,28.861,12.945,28.861,28.859C291.602,1131.422,278.657,1144.373,262.741,1144.373 M262.741,1091.387
		c-13.301,0-24.121,10.822-24.121,24.123c0,13.303,10.82,24.125,24.121,24.125c13.303,0,24.125-10.822,24.125-24.125
		C286.866,1102.209,276.043,1091.387,262.741,1091.387"/>
	<g>
		<path fill="#FFFFFF" d="M259.935,1120.15v-0.324c0-1.949,0.37-3.203,1.854-4.918l2.553-3.063c1.624-1.949,1.949-2.969,1.949-4.408
			c0-1.902-1.299-3.525-3.572-3.525c-2.043,0-3.342,1.068-3.99,2.877c-0.51,1.25-1.393,1.809-2.412,1.809
			c-1.393,0-2.413-0.928-2.413-2.273c0-0.326,0.047-0.789,0.185-1.207c1.067-3.43,4.131-5.846,8.77-5.846
			c5.289,0,8.723,3.479,8.723,8.119c0,2.414-0.742,4.27-2.553,6.404l-2.783,3.293c-0.928,1.115-1.206,1.719-1.206,2.781v0.281
			c0,1.623-1.159,2.551-2.552,2.551C261.048,1122.701,259.935,1121.773,259.935,1120.15z M262.579,1125.348
			c1.719,0,3.203,1.438,3.203,3.199c0,1.764-1.484,3.203-3.203,3.203c-1.762,0-3.201-1.439-3.201-3.203
			C259.377,1126.785,260.817,1125.348,262.579,1125.348z"/>
	</g>
</g>
<g>
	<path fill="#FFFFFF" d="M475.219,1475.25c-15.914,0-28.861,12.943-28.861,28.857c0,15.916,12.947,28.861,28.861,28.861
		s28.859-12.945,28.859-28.861C504.078,1488.193,491.133,1475.25,475.219,1475.25z M461.031,1523.578v-28.934h4.314v4.623
		c0,1.09,0.887,1.975,1.975,1.975c1.092,0,1.973-0.885,1.973-1.975v-4.623h11.844v4.623c0,1.09,0.885,1.975,1.973,1.975
		c1.092,0,1.975-0.885,1.975-1.975v-4.623h4.318v28.934c-3.986,2.914-8.879,4.654-14.184,4.654S465.02,1526.492,461.031,1523.578z
		 M493.35,1519.969v-27.297c0-1.092-0.883-1.975-1.975-1.975h-6.291v-4.623c0-1.09-0.883-1.973-1.975-1.973
		c-1.088,0-1.973,0.883-1.973,1.973v4.623h-11.844v-4.623c0-1.09-0.881-1.973-1.973-1.973c-1.088,0-1.975,0.883-1.975,1.973v4.623
		h-6.289c-1.088,0-1.973,0.883-1.973,1.975v27.295c-3.717-4.244-5.988-9.785-5.988-15.859c0-13.301,10.82-24.121,24.123-24.121
		c13.301,0,24.123,10.82,24.123,24.121C499.342,1510.182,497.068,1515.725,493.35,1519.969z"/>
	<g>
		<path fill="#FFFFFF" d="M470.355,1503.518c-0.709,0-1.334,0.225-2.076,0.754l-2.717,1.918c-0.635,0.469-0.984,1.07-0.984,1.693
			c0,0.979,0.805,1.807,1.758,1.807c0.441,0,0.852-0.123,1.186-0.355l0.977-0.691v11.127c0,1.211,0.814,2.057,1.982,2.057
			c1.166,0,1.98-0.846,1.98-2.057v-14.023C472.461,1504.436,471.596,1503.518,470.355,1503.518z"/>
		<path fill="#FFFFFF" d="M479.314,1510.471l2.307-4.041c0.182-0.33,0.271-0.693,0.271-1.078c0-1.045-0.809-1.834-1.883-1.834
			c-0.758,0-1.402,0.396-1.76,1.076l-4.096,7.424c-0.789,1.455-1.189,2.854-1.189,4.154c0,3.473,2.402,5.805,5.98,5.805
			c3.572,0,5.975-2.383,5.975-5.93C484.92,1512.744,482.51,1510.326,479.314,1510.471z M478.945,1518.311
			c-1.229,0-1.99-0.801-1.99-2.092c0-1.285,0.762-2.086,1.99-2.086c1.227,0,1.988,0.801,1.988,2.086
			C480.934,1517.51,480.172,1518.311,478.945,1518.311z"/>
	</g>
</g>
<path fill="#FFFFFF" d="M475.215,956.965c-15.912,0-28.861,12.945-28.861,28.859s12.949,28.859,28.861,28.859
	c15.916,0,28.863-12.945,28.863-28.859S491.131,956.965,475.215,956.965z M451.092,985.824c0-5.576,1.922-10.703,5.111-14.793
	l33.807,33.809c-4.09,3.188-9.219,5.107-14.795,5.107C461.912,1009.947,451.092,999.125,451.092,985.824z M493.445,1001.578
	l-33.982-33.982c4.23-3.66,9.732-5.895,15.752-5.895c13.305,0,24.125,10.82,24.125,24.123
	C499.34,991.848,497.107,997.348,493.445,1001.578z"/>
<g>
	<g>
		<path fill="#FFFFFF" d="M474.885,1922.102c-15.912,0-28.859-12.947-28.859-28.861s12.947-28.857,28.859-28.857
			c15.914,0,28.859,12.943,28.859,28.857S490.799,1922.102,474.885,1922.102z M474.885,1869.119
			c-13.301,0-24.123,10.82-24.123,24.121c0,13.303,10.822,24.125,24.123,24.125s24.123-10.822,24.123-24.125
			C499.008,1879.939,488.186,1869.119,474.885,1869.119z"/>
	</g>
	<g>
		<path fill="#FFFFFF" d="M484.412,1909.057c-0.316,0-0.631-0.074-0.92-0.227l-8.607-4.525l-8.607,4.525
			c-0.666,0.35-1.467,0.291-2.078-0.15s-0.914-1.189-0.787-1.93l1.645-9.588l-6.965-6.789c-0.539-0.523-0.732-1.307-0.5-2.021
			s0.85-1.236,1.594-1.346l9.625-1.396l4.305-8.723c0.332-0.674,1.018-1.102,1.77-1.102c0.75,0,1.438,0.428,1.77,1.102l4.307,8.723
			l9.625,1.396c0.742,0.109,1.359,0.631,1.59,1.346c0.236,0.715,0.041,1.498-0.498,2.021l-6.963,6.789l1.643,9.588
			c0.125,0.74-0.18,1.488-0.787,1.93C485.225,1908.93,484.818,1909.057,484.412,1909.057z M474.885,1900.1
			c0.314,0,0.629,0.076,0.92,0.229l5.984,3.146l-1.145-6.668c-0.105-0.639,0.105-1.291,0.572-1.746l4.842-4.723l-6.691-0.973
			c-0.645-0.094-1.201-0.496-1.486-1.08l-2.996-6.066l-2.994,6.066c-0.287,0.584-0.842,0.986-1.486,1.08l-6.693,0.973l4.844,4.723
			c0.465,0.455,0.678,1.107,0.57,1.746l-1.145,6.668l5.984-3.146C474.252,1900.176,474.566,1900.1,474.885,1900.1z"/>
	</g>
</g>
<path fill="#FFFFFF" d="M370.823,1864.383c-15.912,0-28.859,12.943-28.859,28.857s12.947,28.861,28.859,28.861
	c15.916,0,28.863-12.947,28.863-28.861S386.739,1864.383,370.823,1864.383z M375.94,1903.213c-0.982-1.836-2.893-3.098-5.113-3.098
	c-2.211,0-4.117,1.254-5.102,3.074c-9.572-1.701-16.434-7.604-18.563-12.338h47.324
	C392.331,1895.682,385.278,1901.557,375.94,1903.213z M372.702,1905.938c0,1.035-0.842,1.875-1.875,1.875
	c-1.037,0-1.877-0.84-1.877-1.875s0.84-1.875,1.877-1.875C371.86,1904.063,372.702,1904.902,372.702,1905.938z M378.057,1886.904
	h-14.463v-5.4h14.463V1886.904z M370.823,1869.119c11.109,0,20.459,7.553,23.254,17.785h-12.072v-7.375
	c0-1.09-0.885-1.973-1.973-1.973H361.62c-1.092,0-1.973,0.883-1.973,1.973v7.375h-12.074
	C350.366,1876.672,359.717,1869.119,370.823,1869.119z M370.823,1917.365c-11.789,0-21.613-8.51-23.697-19.703
	c4.041,4.352,10.434,8.098,17.996,9.428c0.533,2.66,2.889,4.67,5.705,4.67c2.807,0,5.158-2,5.701-4.65
	c7.518-1.309,13.938-5.084,18-9.463C392.448,1908.85,382.62,1917.365,370.823,1917.365z"/>
<g>
	<g>
		<path fill="#FFFFFF" d="M579.018,1792.418c-15.914,0-28.859-12.945-28.859-28.859s12.945-28.859,28.859-28.859
			s28.861,12.945,28.861,28.859S594.932,1792.418,579.018,1792.418z M579.018,1739.436c-13.301,0-24.123,10.82-24.123,24.123
			c0,13.301,10.822,24.123,24.123,24.123s24.123-10.822,24.123-24.123C603.141,1750.256,592.318,1739.436,579.018,1739.436z"/>
	</g>
	<g>
		<path fill="#FFFFFF" d="M582.406,1770.584c-2.781,0-5.395-1.086-7.363-3.051c-4.059-4.061-4.055-10.666,0.002-14.727l4.047-4.049
			c1.969-1.967,4.584-3.051,7.365-3.051s5.396,1.082,7.361,3.051c1.967,1.967,3.053,4.582,3.053,7.363s-1.086,5.396-3.053,7.361
			l-4.049,4.051C587.805,1769.498,585.189,1770.584,582.406,1770.584z M586.457,1749.654c-1.729,0-3.352,0.674-4.574,1.895
			l-4.047,4.049c-2.52,2.521-2.521,6.623-0.002,9.145c1.221,1.221,2.846,1.895,4.572,1.895c1.729,0,3.35-0.674,4.572-1.895
			l4.049-4.051c1.221-1.221,1.896-2.844,1.896-4.57c0-1.729-0.676-3.352-1.896-4.572
			C589.805,1750.328,588.184,1749.654,586.457,1749.654z"/>
	</g>
	<g>
		<path fill="#FFFFFF" d="M571.58,1781.408c-2.783,0-5.396-1.082-7.363-3.049s-3.049-4.582-3.049-7.363
			c0-2.779,1.082-5.395,3.049-7.363l4.049-4.047c1.967-1.969,4.582-3.053,7.363-3.053s5.396,1.084,7.361,3.051
			c1.967,1.969,3.053,4.58,3.053,7.363c0,2.781-1.086,5.396-3.053,7.363l-4.047,4.049
			C576.977,1780.326,574.361,1781.408,571.58,1781.408z M575.629,1760.48c-1.729,0-3.35,0.676-4.57,1.896l-4.051,4.047
			c-1.221,1.223-1.893,2.846-1.893,4.572s0.672,3.352,1.893,4.572c1.223,1.221,2.844,1.893,4.572,1.893
			c1.727,0,3.352-0.672,4.572-1.893l4.047-4.049c1.221-1.223,1.896-2.846,1.896-4.572s-0.676-3.352-1.896-4.572
			C578.977,1761.154,577.355,1760.48,575.629,1760.48z"/>
	</g>
</g>
<g>
	<path fill="#FFFFFF" d="M474.885,1734.699c-15.914,0-28.861,12.947-28.861,28.859c0,15.914,12.947,28.859,28.861,28.859
		s28.861-12.945,28.861-28.859C503.746,1747.646,490.799,1734.699,474.885,1734.699z M474.885,1787.682
		c-13.303,0-24.123-10.822-24.123-24.123s10.82-24.123,24.123-24.123c13.301,0,24.125,10.822,24.125,24.123
		S488.186,1787.682,474.885,1787.682z"/>
	<path fill="#FFFFFF" d="M474.885,1753.795c-4.256,0-17.658,3.57-17.658,9.764s13.402,9.762,17.658,9.762s17.658-3.568,17.658-9.762
		S479.141,1753.795,474.885,1753.795z M474.887,1769.279c-3.156,0-5.723-2.564-5.723-5.721s2.566-5.721,5.723-5.721
		c3.154,0,5.721,2.564,5.721,5.721S478.041,1769.279,474.887,1769.279z M460.385,1763.559c0-1.529,2.73-3.275,5.992-4.59
		c-0.74,1.367-1.162,2.93-1.162,4.59s0.422,3.223,1.162,4.59C463.115,1766.834,460.385,1765.088,460.385,1763.559z
		 M483.395,1768.146c0.74-1.365,1.16-2.928,1.16-4.588s-0.42-3.223-1.16-4.59c3.26,1.314,5.99,3.061,5.99,4.59
		S486.654,1766.834,483.395,1768.146z"/>
</g>
<g>
	<g>
		<path fill="#FFFFFF" d="M370.824,1792.418c-15.913,0-28.86-12.945-28.86-28.859s12.947-28.859,28.86-28.859
			c15.914,0,28.862,12.945,28.862,28.859S386.738,1792.418,370.824,1792.418z M370.824,1739.436
			c-13.302,0-24.124,10.82-24.124,24.123c0,13.301,10.822,24.123,24.124,24.123s24.124-10.822,24.124-24.123
			C394.948,1750.256,384.125,1739.436,370.824,1739.436z"/>
	</g>
	<g>
		<g>
			<path fill="#FFFFFF" d="M370.825,1777.072c-6.766,0-12.27-5.506-12.27-12.271c0-4.078,2.02-7.881,5.405-10.172
				c0.899-0.609,2.128-0.375,2.741,0.529c0.61,0.904,0.373,2.129-0.53,2.742c-2.298,1.553-3.669,4.133-3.669,6.9
				c0,4.59,3.732,8.322,8.322,8.322c4.589,0,8.322-3.732,8.322-8.322c0-2.771-1.376-5.355-3.681-6.908
				c-0.903-0.609-1.142-1.836-0.532-2.74s1.836-1.145,2.738-0.533c3.396,2.287,5.422,6.096,5.422,10.182
				C383.094,1771.566,377.59,1777.072,370.825,1777.072z"/>
		</g>
		<g>
			<path fill="#FFFFFF" d="M370.825,1769.199c-1.09,0-1.975-0.883-1.975-1.973v-15.209c0-1.088,0.885-1.973,1.975-1.973
				s1.974,0.885,1.974,1.973v15.209C372.798,1768.316,371.915,1769.199,370.825,1769.199z"/>
		</g>
	</g>
</g>
<g>
	<g>
		<path fill="#FFFFFF" d="M579.018,1662.736c-15.912,0-28.859-12.947-28.859-28.861s12.947-28.857,28.859-28.857
			c15.914,0,28.861,12.943,28.861,28.857S594.932,1662.736,579.018,1662.736z M579.018,1609.754
			c-13.301,0-24.123,10.82-24.123,24.121c0,13.303,10.822,24.125,24.123,24.125c13.303,0,24.125-10.822,24.125-24.125
			C603.143,1620.574,592.32,1609.754,579.018,1609.754z"/>
	</g>
	<g>
		<path fill="#FFFFFF" d="M572.67,1648.729c-0.316,0-0.633-0.076-0.924-0.229c-0.646-0.342-1.049-1.014-1.049-1.744v-25.758
			c0-0.732,0.402-1.402,1.049-1.744s1.426-0.301,2.031,0.111l19.012,12.879c0.541,0.367,0.865,0.979,0.865,1.633
			s-0.324,1.266-0.865,1.635l-19.012,12.877C573.445,1648.615,573.059,1648.729,572.67,1648.729z M574.645,1624.719v18.316
			l13.518-9.158L574.645,1624.719z"/>
	</g>
</g>
<path fill="#FFFFFF" d="M370.824,1604.742c-15.913,0-28.86,12.945-28.86,28.859s12.947,28.859,28.86,28.859
	c15.915,0,28.862-12.945,28.862-28.859S386.739,1604.742,370.824,1604.742z M379.849,1611.246v31.195l-7.736-6.666
	c-0.739-0.637-1.837-0.637-2.576,0l-7.736,6.666v-31.195c2.791-1.131,5.832-1.768,9.023-1.768
	C374.016,1609.479,377.058,1610.115,379.849,1611.246z M370.824,1657.725c-13.301,0-24.122-10.822-24.122-24.123
	c0-8.525,4.457-16.016,11.151-20.307v33.451c0,0.771,0.449,1.473,1.151,1.793c0.7,0.324,1.525,0.207,2.109-0.297l9.711-8.365
	l9.71,8.365c0.366,0.314,0.824,0.477,1.288,0.477c0.279,0,0.561-0.059,0.822-0.18c0.703-0.32,1.151-1.021,1.151-1.793v-33.449
	c6.694,4.291,11.151,11.779,11.151,20.305C394.948,1646.902,384.125,1657.725,370.824,1657.725z"/>
<g>
	<path fill="#FFFFFF" d="M262.742,1734.699c-15.913,0-28.86,12.945-28.86,28.859s12.947,28.859,28.86,28.859
		c15.914,0,28.861-12.945,28.861-28.859S278.656,1734.699,262.742,1734.699z M264.715,1787.582v-3.051
		c8.654-0.984,15.402-8.342,15.402-17.254v-8.018c0-1.09-0.885-1.973-1.975-1.973s-1.975,0.883-1.975,1.973v8.018
		c0,7.377-5.98,13.381-13.347,13.424c-0.028-0.004-0.052-0.016-0.079-0.016s-0.053,0.012-0.08,0.016
		c-7.365-0.043-13.347-6.047-13.347-13.424v-8.018c0-1.09-0.884-1.973-1.974-1.973s-1.974,0.883-1.974,1.973v8.018
		c0,8.912,6.747,16.27,15.399,17.254v3.051c-12.379-1.01-22.15-11.387-22.15-24.023c0-13.303,10.822-24.123,24.124-24.123
		s24.124,10.82,24.124,24.123C286.866,1776.195,277.096,1786.572,264.715,1787.582z"/>
	<path fill="#FFFFFF" d="M262.743,1745.037c-6.088,0-11.04,4.951-11.04,11.039v11.303c0,6.088,4.952,11.041,11.04,11.041
		s11.04-4.953,11.04-11.041v-11.303C273.783,1749.988,268.831,1745.037,262.743,1745.037z M269.835,1767.379
		c0,3.91-3.182,7.094-7.093,7.094c-3.095,0-5.704-2.006-6.672-4.775h5.096c1.09,0,1.974-0.883,1.974-1.973
		c0-1.092-0.884-1.975-1.974-1.975h-5.517v-2.369h5.517c1.09,0,1.974-0.883,1.974-1.973s-0.884-1.975-1.974-1.975h-5.517v-2.367
		h5.517c1.09,0,1.974-0.885,1.974-1.975s-0.884-1.973-1.974-1.973h-4.85c1.125-2.434,3.573-4.135,6.426-4.135
		c3.911,0,7.093,3.182,7.093,7.092V1767.379z"/>
</g>
<g>
	<path fill="#FFFFFF" d="M262.741,1604.934c-15.912,0-28.859,12.943-28.859,28.857s12.947,28.861,28.859,28.861
		c15.914,0,28.862-12.947,28.862-28.861S278.655,1604.934,262.741,1604.934z M238.618,1633.791c0-12.285,9.239-22.436,21.131-23.916
		c8.697,4.881,14.078,14.002,14.076,24.008c0,9.879-5.287,18.953-13.828,23.865C247.985,1656.381,238.618,1646.164,238.618,1633.791
		z M267.083,1657.502c6.71-5.904,10.688-14.459,10.688-23.619c0.002-9.301-4.068-17.934-10.931-23.838
		c11.353,1.955,20.024,11.846,20.024,23.746C286.866,1645.609,278.319,1655.449,267.083,1657.502z"/>
	<path fill="#FFFFFF" d="M260.036,1651.4c0.465,0,0.932-0.166,1.307-0.496c4.878-4.313,7.676-10.516,7.676-17.02
		c0-6.512-2.801-12.721-7.685-17.035c-0.818-0.723-2.063-0.646-2.785,0.172c-0.723,0.816-0.646,2.063,0.171,2.785
		c4.037,3.566,6.352,8.699,6.352,14.078c0,5.373-2.312,10.5-6.343,14.063c-0.817,0.721-0.894,1.969-0.171,2.785
		C258.947,1651.174,259.491,1651.4,260.036,1651.4z"/>
	<path fill="#FFFFFF" d="M256.368,1625.383c-0.704-0.832-1.95-0.936-2.783-0.232c-0.832,0.703-0.938,1.947-0.234,2.781
		c1.404,1.662,2.176,3.773,2.176,5.951c0,2.139-0.748,4.223-2.105,5.869c-0.693,0.842-0.574,2.086,0.266,2.779
		c0.369,0.305,0.813,0.451,1.256,0.451c0.568,0,1.133-0.244,1.523-0.719c1.939-2.352,3.009-5.328,3.009-8.381
		C259.474,1630.775,258.371,1627.758,256.368,1625.383z"/>
	<path fill="#FFFFFF" d="M249.278,1630.852c-1.519,0.002-2.748,1.232-2.749,2.75c0.001,1.52,1.23,2.748,2.749,2.752
		c1.52-0.004,2.75-1.232,2.75-2.752C252.028,1632.084,250.797,1630.854,249.278,1630.852z"/>
</g>
<g>
	<path fill="#FFFFFF" d="M475.217,1215.879c-15.912,0-28.859,12.947-28.859,28.859c0,15.916,12.947,28.863,28.859,28.863
		c15.916,0,28.861-12.947,28.861-28.863C504.078,1228.826,491.133,1215.879,475.217,1215.879z M451.096,1244.738
		c0-13.299,10.82-24.123,24.121-24.123c8.664,0,16.254,4.609,20.508,11.482h-7.992V1228c0-1.09-0.885-1.975-1.973-1.975h-13.719
		c-1.09,0-1.973,0.885-1.973,1.975v4.098h-7.531c-1.09,0-1.975,0.885-1.975,1.973v26.252c0,1.092,0.885,1.975,1.975,1.975h29.174
		c-4.32,4.059-10.113,6.566-16.494,6.566C461.916,1268.863,451.096,1258.043,451.096,1244.738z M483.785,1232.098h-9.77v-2.125h9.77
		V1232.098z M495.119,1258.35H464.51v-22.305h33.186c1.047,2.701,1.646,5.627,1.646,8.693
		C499.342,1249.787,497.777,1254.473,495.119,1258.35z"/>
	<path fill="#FFFFFF" d="M478.9,1237.354c-5.428,0-9.846,4.416-9.846,9.844s4.418,9.844,9.846,9.844s9.844-4.416,9.844-9.844
		S484.328,1237.354,478.9,1237.354z M478.9,1253.094c-3.254,0-5.896-2.645-5.896-5.896c0-3.25,2.643-5.896,5.896-5.896
		c3.25,0,5.896,2.646,5.896,5.896C484.797,1250.449,482.15,1253.094,478.9,1253.094z"/>
</g>
<g>
	<g>
		<path fill="#FFFFFF" stroke="#FFFFFF" stroke-width="2" stroke-miterlimit="10" d="M188.219,117.221
			c0,0.795-0.628,1.424-1.424,1.424s-1.424-0.629-1.424-1.424V91.545c0-0.797,0.628-1.425,1.424-1.425h8.336c4.648,0,8,3.519,8,8
			c0,4.314-2.975,7.791-7.498,8.001l7.665,10.219c0.21,0.252,0.293,0.587,0.293,0.881c0,0.795-0.628,1.424-1.424,1.424
			c-0.419,0-0.88-0.168-1.215-0.67l-8.503-11.854h-4.23V117.221z M188.219,103.524h6.995c2.933,0,5.026-2.387,5.026-5.403
			c0-3.099-2.137-5.403-5.152-5.403h-6.869V103.524z"/>
		<path fill="#FFFFFF" stroke="#FFFFFF" stroke-width="2" stroke-miterlimit="10" d="M206.736,104.237
			c0-9.928,4.942-14.703,13.068-14.703s13.068,4.775,13.068,14.703c0,9.842-4.942,14.659-13.068,14.659
			S206.736,114.079,206.736,104.237z M209.668,104.237c0,8.167,3.728,12.063,10.136,12.063c6.409,0,10.136-3.896,10.136-12.063
			c0-8.211-3.727-12.105-10.136-12.105C213.396,92.131,209.668,96.026,209.668,104.237z"/>
		<path fill="#FFFFFF" stroke="#FFFFFF" stroke-width="2" stroke-miterlimit="10" d="M238.071,109.723V91.209
			c0-0.795,0.628-1.424,1.424-1.424s1.424,0.629,1.424,1.424v18.514c0,3.309,1.215,6.492,6.995,6.492
			c5.738,0,6.953-3.184,6.953-6.492V91.209c0-0.795,0.628-1.424,1.424-1.424s1.425,0.629,1.425,1.424v18.514
			c0,4.607-1.885,9.173-9.802,9.173S238.071,114.331,238.071,109.723z"/>
		<path fill="#FFFFFF" stroke="#FFFFFF" stroke-width="2" stroke-miterlimit="10" d="M283.897,91.168v26.053
			c0,0.795-0.629,1.424-1.424,1.424c-0.503,0-0.88-0.21-1.174-0.587l-14.743-22.241v21.445c0,0.754-0.628,1.383-1.382,1.383
			s-1.383-0.629-1.383-1.383V91.168c0-0.754,0.629-1.383,1.383-1.383c0.502,0,0.922,0.293,1.131,0.586l14.827,22.283V91.168
			c0-0.754,0.628-1.383,1.382-1.383S283.897,90.415,283.897,91.168z"/>
		<path fill="#FFFFFF" stroke="#FFFFFF" stroke-width="2" stroke-miterlimit="10" d="M297.513,90.121
			c8,0,12.942,3.771,12.942,14.116c0,10.345-4.942,14.072-12.942,14.072h-5.905c-0.797,0-1.424-0.628-1.424-1.424v-25.34
			c0-0.797,0.627-1.425,1.424-1.425H297.513z M293.032,115.713h4.481c6.241,0,10.053-2.766,10.053-11.477
			c0-8.629-3.812-11.52-10.053-11.52h-4.481V115.713z"/>
		<path fill="#FFFFFF" stroke="#FFFFFF" stroke-width="2" stroke-miterlimit="10" d="M329.266,109.975l-3.057,7.664
			c-0.209,0.545-0.67,1.006-1.383,1.006c-0.795,0-1.424-0.67-1.424-1.424c0-0.168,0.042-0.461,0.125-0.629l10.221-25.844
			c0.209-0.502,0.586-0.963,1.34-0.963c0.713,0,1.174,0.461,1.383,0.963l10.22,25.844c0.084,0.209,0.126,0.502,0.126,0.629
			c0,0.754-0.586,1.424-1.467,1.424c-0.711,0-1.172-0.42-1.381-0.964l-3.017-7.706H329.266z M335.088,94.561l-4.941,12.816h9.926
			L335.088,94.561z"/>
		<path fill="#FFFFFF" stroke="#FFFFFF" stroke-width="2" stroke-miterlimit="10" d="M354.151,117.221
			c0,0.795-0.629,1.424-1.425,1.424s-1.425-0.629-1.425-1.424V91.545c0-0.797,0.629-1.425,1.425-1.425h8.335c4.649,0,8,3.519,8,8
			c0,4.314-2.974,7.791-7.497,8.001l7.665,10.219c0.209,0.252,0.293,0.587,0.293,0.881c0,0.795-0.628,1.424-1.424,1.424
			c-0.419,0-0.88-0.168-1.215-0.67l-8.502-11.854h-4.23V117.221z M354.151,103.524h6.994c2.932,0,5.026-2.387,5.026-5.403
			c0-3.099-2.136-5.403-5.151-5.403h-6.869V103.524z"/>
		<path fill="#FFFFFF" stroke="#FFFFFF" stroke-width="2" stroke-miterlimit="10" d="M372.667,104.237
			c0-9.928,4.943-14.703,13.068-14.703c8.126,0,13.068,4.775,13.068,14.703c0,9.842-4.942,14.659-13.068,14.659
			C377.61,118.896,372.667,114.079,372.667,104.237z M375.598,104.237c0,8.167,3.729,12.063,10.137,12.063
			s10.137-3.896,10.137-12.063c0-8.211-3.729-12.105-10.137-12.105S375.598,96.026,375.598,104.237z"/>
		<path fill="#FFFFFF" stroke="#FFFFFF" stroke-width="2" stroke-miterlimit="10" d="M404,109.723V91.209
			c0-0.795,0.629-1.424,1.425-1.424s1.425,0.629,1.425,1.424v18.514c0,3.309,1.214,6.492,6.994,6.492
			c5.738,0,6.953-3.184,6.953-6.492V91.209c0-0.795,0.629-1.424,1.423-1.424c0.795,0,1.424,0.629,1.424,1.424v18.514
			c0,4.607-1.884,9.173-9.8,9.173S404,114.331,404,109.723z"/>
		<path fill="#FFFFFF" stroke="#FFFFFF" stroke-width="2" stroke-miterlimit="10" d="M449.826,91.168v26.053
			c0,0.795-0.627,1.424-1.424,1.424c-0.502,0-0.879-0.21-1.172-0.587l-14.744-22.241v21.445c0,0.754-0.629,1.383-1.383,1.383
			s-1.381-0.629-1.381-1.383V91.168c0-0.754,0.627-1.383,1.381-1.383c0.504,0,0.922,0.293,1.131,0.586l14.828,22.283V91.168
			c0-0.754,0.629-1.383,1.383-1.383S449.826,90.415,449.826,91.168z"/>
		<path fill="#FFFFFF" stroke="#FFFFFF" stroke-width="2" stroke-miterlimit="10" d="M463.443,90.121
			c8,0,12.943,3.771,12.943,14.116c0,10.345-4.943,14.072-12.943,14.072h-5.906c-0.795,0-1.424-0.628-1.424-1.424v-25.34
			c0-0.797,0.629-1.425,1.424-1.425H463.443z M458.961,115.713h4.482c6.24,0,10.053-2.766,10.053-11.477
			c0-8.629-3.813-11.52-10.053-11.52h-4.482V115.713z"/>
		<path fill="#FFFFFF" stroke="#FFFFFF" stroke-width="2" stroke-miterlimit="10" d="M494.4,117.221
			c0,0.754-0.627,1.424-1.424,1.424c-0.795,0-1.424-0.67-1.424-1.424V91.209c0-0.754,0.629-1.424,1.424-1.424
			c0.797,0,1.424,0.67,1.424,1.424V117.221z"/>
		<path fill="#FFFFFF" stroke="#FFFFFF" stroke-width="2" stroke-miterlimit="10" d="M499.596,104.237
			c0-9.928,4.943-14.703,13.068-14.703c3.979,0,7.455,1.718,9.424,4.44c0.211,0.294,0.293,0.587,0.293,0.88
			c0,0.754-0.586,1.34-1.34,1.34c-0.377,0-0.754-0.125-1.088-0.545c-1.424-1.968-4.146-3.518-7.289-3.518
			c-6.449,0-10.137,3.895-10.137,12.105c0,8.711,3.688,12.063,10.137,12.063c2.766,0,5.654-1.09,7.289-3.436
			c0.293-0.418,0.754-0.544,1.088-0.544c0.754,0,1.34,0.587,1.34,1.341c0,0.335-0.082,0.544-0.25,0.795
			c-1.844,2.682-5.613,4.44-9.467,4.44C504.539,118.896,499.596,114.54,499.596,104.237z"/>
		<path fill="#FFFFFF" stroke="#FFFFFF" stroke-width="2" stroke-miterlimit="10" d="M526.029,104.237
			c0-9.928,4.943-14.703,13.068-14.703c8.127,0,13.068,4.775,13.068,14.703c0,9.842-4.941,14.659-13.068,14.659
			C530.973,118.896,526.029,114.079,526.029,104.237z M528.961,104.237c0,8.167,3.729,12.063,10.137,12.063
			s10.137-3.896,10.137-12.063c0-8.211-3.729-12.105-10.137-12.105S528.961,96.026,528.961,104.237z"/>
		<path fill="#FFFFFF" stroke="#FFFFFF" stroke-width="2" stroke-miterlimit="10" d="M577.051,91.168v26.053
			c0,0.795-0.629,1.424-1.424,1.424c-0.504,0-0.881-0.21-1.174-0.587l-14.744-22.241v21.445c0,0.754-0.627,1.383-1.381,1.383
			s-1.383-0.629-1.383-1.383V91.168c0-0.754,0.629-1.383,1.383-1.383c0.502,0,0.922,0.293,1.131,0.586l14.826,22.283V91.168
			c0-0.754,0.629-1.383,1.383-1.383S577.051,90.415,577.051,91.168z"/>
		<path fill="#FFFFFF" stroke="#FFFFFF" stroke-width="2" stroke-miterlimit="10" d="M601.727,92.131
			c-4.398,0-6.074,2.178-6.074,4.565c0,6.953,15.832,3.979,15.832,14.073c0,5.236-3.602,8.126-10.053,8.126
			c-4.773,0-8.334-2.429-9.758-5.151c-0.168-0.336-0.211-0.504-0.211-0.754c0-0.754,0.588-1.341,1.342-1.341
			c0.502,0,0.92,0.251,1.172,0.67c1.34,2.179,3.77,3.979,7.455,3.979c4.607,0,7.205-1.844,7.205-5.529
			c0-7.832-15.832-4.146-15.832-14.073c0-3.854,2.805-7.163,8.922-7.163c3.979,0,7.203,1.676,8.963,4.314
			c0.168,0.252,0.25,0.503,0.25,0.797c0,0.754-0.586,1.34-1.34,1.34c-0.377,0-0.754-0.126-1.088-0.545
			C607.254,93.891,605.244,92.131,601.727,92.131z"/>
		<path fill="#FFFFFF" stroke="#FFFFFF" stroke-width="2" stroke-miterlimit="10" d="M618.105,118.309
			c-0.795,0-1.424-0.628-1.424-1.424v-25.34c0-0.797,0.629-1.425,1.424-1.425h13.445c0.713,0,1.299,0.587,1.299,1.298
			c0,0.713-0.586,1.299-1.299,1.299h-12.02v10.095h9.215c0.711,0,1.297,0.587,1.297,1.298c0,0.713-0.586,1.299-1.297,1.299h-9.215
			v10.305h12.48c0.713,0,1.299,0.586,1.299,1.298s-0.586,1.298-1.299,1.298H618.105z"/>
		<path fill="#FFFFFF" stroke="#FFFFFF" stroke-width="2" stroke-miterlimit="10" d="M637.377,92.801c-0.754,0-1.34-0.586-1.34-1.34
			s0.586-1.341,1.34-1.341h17.801c0.754,0,1.34,0.587,1.34,1.341s-0.586,1.34-1.34,1.34h-7.455v24.42
			c0,0.795-0.629,1.424-1.424,1.424c-0.797,0-1.424-0.629-1.424-1.424v-24.42H637.377z"/>
		<path fill="#FFFFFF" d="M326.417,162.229c0,6.702-3.979,9.676-9.717,9.676c-4.607,0-7.959-2.094-9.676-5.654
			c-0.125-0.251-0.168-0.461-0.168-0.628c0-0.712,0.587-1.298,1.299-1.298c0.377,0,0.796,0.083,1.173,0.711
			c1.802,3.016,3.896,4.273,7.372,4.273c4.063,0,6.953-2.053,6.953-7.08c0-4.9-2.891-7.036-6.953-7.036
			c-3.016,0-4.816,0.712-6.701,2.556c-0.252,0.251-0.545,0.544-1.132,0.544c-0.712,0-1.298-0.587-1.298-1.298
			c0-0.21,0.041-0.336,0.084-0.545l2.429-12.314c0.084-0.461,0.544-1.006,1.257-1.006h12.732c0.713,0,1.299,0.587,1.299,1.299
			c0,0.713-0.586,1.299-1.299,1.299H312.26l-1.676,8.586c1.424-1.005,3.351-1.675,6.115-1.675
			C322.438,152.638,326.417,155.612,326.417,162.229z"/>
		<path fill="#FFFFFF" d="M349.415,157.204c0,10.053-3.309,14.701-10.346,14.701s-10.346-4.648-10.346-14.701
			s3.309-14.66,10.346-14.66S349.415,147.151,349.415,157.204z M346.651,157.204c0-8.67-2.389-12.146-7.582-12.146
			s-7.581,3.477-7.581,12.146s2.388,12.188,7.581,12.188S346.651,165.874,346.651,157.204z"/>
		<path fill="#FFFFFF" d="M363.66,170.23c0,0.754-0.628,1.424-1.425,1.424c-0.795,0-1.424-0.67-1.424-1.424v-26.011
			c0-0.754,0.629-1.424,1.424-1.424c0.797,0,1.425,0.67,1.425,1.424V170.23z"/>
		<path fill="#FFFFFF" d="M366.76,157.245c0-9.926,4.942-14.701,13.068-14.701c3.979,0,7.455,1.717,9.424,4.439
			c0.209,0.294,0.293,0.587,0.293,0.881c0,0.754-0.586,1.34-1.34,1.34c-0.377,0-0.754-0.126-1.09-0.545
			c-1.424-1.969-4.146-3.518-7.287-3.518c-6.451,0-10.137,3.895-10.137,12.104c0,8.713,3.686,12.064,10.137,12.064
			c2.764,0,5.654-1.09,7.287-3.436c0.294-0.418,0.754-0.545,1.09-0.545c0.754,0,1.34,0.587,1.34,1.341
			c0,0.335-0.084,0.544-0.251,0.796c-1.843,2.681-5.612,4.439-9.466,4.439C371.703,171.905,366.76,167.549,366.76,157.245z"/>
		<path fill="#FFFFFF" d="M391.098,157.245c0-9.926,4.943-14.701,13.068-14.701c8.127,0,13.068,4.775,13.068,14.701
			c0,9.844-4.941,14.66-13.068,14.66C396.042,171.905,391.098,167.088,391.098,157.245z M394.031,157.245
			c0,8.168,3.728,12.064,10.136,12.064c6.409,0,10.137-3.896,10.137-12.064c0-8.209-3.728-12.104-10.137-12.104
			C397.758,145.141,394.031,149.036,394.031,157.245z"/>
		<path fill="#FFFFFF" d="M440.025,144.177v26.053c0,0.796-0.629,1.424-1.426,1.424c-0.502,0-0.879-0.21-1.172-0.587l-14.744-22.24
			v21.445c0,0.754-0.627,1.382-1.382,1.382c-0.753,0-1.381-0.628-1.381-1.382v-26.095c0-0.754,0.628-1.382,1.381-1.382
			c0.504,0,0.921,0.293,1.132,0.586l14.826,22.283v-21.487c0-0.754,0.629-1.382,1.383-1.382S440.025,143.423,440.025,144.177z"/>
		<path fill="#FFFFFF" d="M454.939,170.23c0,0.796-0.629,1.424-1.424,1.424c-0.797,0-1.424-0.628-1.424-1.424v-25.676
			c0-0.796,0.627-1.425,1.424-1.425h8.336c4.48,0,8,2.598,8,8.168c0,5.487-3.436,8.21-8,8.21h-6.912V170.23z M454.939,156.911h6.492
			c3.393,0,5.529-1.969,5.529-5.613c0-3.686-2.178-5.57-5.529-5.57h-6.492V156.911z"/>
		<path fill="#FFFFFF" d="M472.24,162.984l-3.059,7.665c-0.209,0.545-0.67,1.005-1.381,1.005c-0.797,0-1.424-0.67-1.424-1.424
			c0-0.167,0.041-0.461,0.125-0.628l10.221-25.844c0.209-0.502,0.586-0.963,1.34-0.963c0.711,0,1.172,0.461,1.383,0.963
			l10.219,25.844c0.084,0.209,0.127,0.502,0.127,0.628c0,0.754-0.588,1.424-1.467,1.424c-0.713,0-1.172-0.419-1.383-0.964
			l-3.016-7.706H472.24z M478.063,147.57l-4.943,12.817h9.928L478.063,147.57z"/>
		<path fill="#FFFFFF" d="M488.578,157.245c0-9.926,4.943-14.701,13.068-14.701c3.979,0,7.455,1.717,9.424,4.439
			c0.211,0.294,0.293,0.587,0.293,0.881c0,0.754-0.586,1.34-1.34,1.34c-0.377,0-0.754-0.126-1.088-0.545
			c-1.424-1.969-4.146-3.518-7.289-3.518c-6.449,0-10.137,3.895-10.137,12.104c0,8.713,3.688,12.064,10.137,12.064
			c2.766,0,5.654-1.09,7.289-3.436c0.293-0.418,0.754-0.545,1.088-0.545c0.754,0,1.34,0.587,1.34,1.341
			c0,0.335-0.082,0.544-0.25,0.796c-1.844,2.681-5.613,4.439-9.467,4.439C493.521,171.905,488.578,167.549,488.578,157.245z"/>
		<path fill="#FFFFFF" d="M529.463,143.339c0.334-0.419,0.754-0.544,1.131-0.544c0.795,0,1.465,0.67,1.465,1.465
			c0,0.42-0.168,0.713-0.418,1.006l-8.754,9.801l10.135,14.283c0.168,0.252,0.295,0.503,0.295,0.88c0,0.796-0.629,1.424-1.426,1.424
			c-0.627,0-1.004-0.377-1.213-0.67l-9.719-13.822l-3.686,4.146v8.922c0,0.796-0.629,1.424-1.424,1.424
			c-0.797,0-1.424-0.628-1.424-1.424v-26.011c0-0.796,0.627-1.424,1.424-1.424c0.795,0,1.424,0.628,1.424,1.424v13.068
			L529.463,143.339z"/>
	</g>
	<g>
		<path fill="#FFFFFF" d="M348.395,222.051c0,3.937-1.824,5.785-4.921,5.785c-2.736,0-4.704-1.561-4.704-4.729v-11.905
			c0-0.433,0.336-0.769,0.768-0.769s0.768,0.336,0.768,0.769v6.648c0.553-0.769,1.729-1.56,3.265-1.56
			C346.667,216.292,348.395,218.116,348.395,222.051z M340.305,223.108c0,2.279,1.32,3.336,3.169,3.336
			c2.208,0,3.384-1.393,3.384-4.393c0-2.952-1.199-4.368-3.384-4.368c-2.257,0-3.169,2.112-3.169,2.112V223.108z"/>
		<path fill="#FFFFFF" d="M353.698,227.068l-4.008-9.528c-0.024-0.072-0.072-0.168-0.072-0.336c0-0.433,0.336-0.769,0.768-0.769
			s0.625,0.265,0.721,0.504l3.384,8.28l3.384-8.28c0.097-0.239,0.289-0.504,0.721-0.504s0.768,0.336,0.768,0.769
			c0,0.168-0.047,0.264-0.072,0.336l-4.728,11.256c-0.984,2.354-2.208,3.553-4.489,3.553c-0.407,0-0.719-0.313-0.719-0.72
			c0-0.408,0.312-0.72,0.719-0.72C352.162,230.909,352.713,229.493,353.698,227.068z"/>
		<path fill="#FFFFFF" d="M373.738,224.452l-5.017-9.337v11.81c0,0.432-0.359,0.791-0.792,0.791s-0.792-0.359-0.792-0.791v-14.953
			c0-0.433,0.359-0.793,0.792-0.793c0.36,0,0.601,0.217,0.72,0.457l5.809,10.872l5.833-10.872c0.096-0.169,0.288-0.457,0.72-0.457
			s0.792,0.36,0.792,0.793v14.953c0,0.432-0.36,0.791-0.792,0.791s-0.792-0.359-0.792-0.791v-11.81l-5.04,9.337
			c-0.168,0.313-0.433,0.456-0.721,0.456C374.217,224.908,373.906,224.788,373.738,224.452z"/>
		<path fill="#FFFFFF" d="M385.113,213.266c0-0.695,0.336-0.959,0.912-0.959s0.912,0.264,0.912,0.959
			c0,0.576-0.336,0.912-0.912,0.912S385.113,213.842,385.113,213.266z M386.793,226.948c0,0.432-0.336,0.768-0.769,0.768
			s-0.769-0.336-0.769-0.768v-9.744c0-0.433,0.336-0.769,0.769-0.769s0.769,0.336,0.769,0.769V226.948z"/>
		<path fill="#FFFFFF" d="M394.137,216.292c2.137,0,3.313,1.127,3.696,1.656c0.12,0.168,0.168,0.287,0.168,0.455
			c0,0.408-0.312,0.696-0.696,0.696c-0.24,0-0.408-0.096-0.576-0.288c-0.359-0.408-1.008-1.128-2.592-1.128
			c-2.209,0-3.385,1.416-3.385,4.368c0,3,1.176,4.393,3.385,4.393c1.393,0,2.232-0.624,2.784-1.032
			c0.168-0.12,0.288-0.168,0.456-0.168c0.384,0,0.695,0.312,0.695,0.696c0,0.216-0.071,0.384-0.312,0.6
			c-0.528,0.432-1.681,1.297-3.624,1.297c-3.097,0-4.945-1.849-4.945-5.785C389.192,218.116,391.041,216.292,394.137,216.292z"/>
		<path fill="#FFFFFF" d="M409.641,220.54v6.408c0,0.432-0.336,0.768-0.768,0.768s-0.768-0.336-0.768-0.768v-6.096
			c0-1.896-0.553-3.193-2.881-3.193c-2.377,0-3.192,1.44-3.192,3.361v5.928c0,0.432-0.336,0.768-0.769,0.768
			c-0.432,0-0.768-0.336-0.768-0.768v-15.745c0-0.433,0.336-0.769,0.768-0.769c0.433,0,0.769,0.336,0.769,0.769v6.769
			c0.456-0.912,1.632-1.68,3.192-1.68C408.921,216.292,409.641,218.499,409.641,220.54z"/>
		<path fill="#FFFFFF" d="M413.745,218.956c-0.24,0.264-0.408,0.336-0.624,0.336c-0.384,0-0.696-0.313-0.696-0.696
			c0-0.168,0.049-0.288,0.12-0.408c0.673-1.056,1.968-1.896,3.984-1.896c2.784,0,4.32,1.631,4.32,4.08v6.6
			c0,0.408-0.336,0.744-0.743,0.744c-0.408,0-0.744-0.336-0.744-0.744v-0.863c-0.601,1.128-1.992,1.729-3.434,1.729
			c-2.543,0-4.152-1.225-4.152-3.433c0-2.112,1.609-3.384,4.201-3.384h3.385v-0.648c0-1.633-1.08-2.641-2.833-2.641
			C415.256,217.731,414.489,218.116,413.745,218.956z M419.362,223.372v-1.008h-3.385c-1.561,0-2.641,0.648-2.641,2.04
			c0,1.248,0.864,2.04,2.736,2.04C417.752,226.444,419.362,225.412,419.362,223.372z"/>
		<path fill="#FFFFFF" d="M427.953,216.292c3.84,0,4.584,3.048,4.584,4.68c0,0.696,0,1.536-0.961,1.536h-7.008
			c0,2.376,1.367,3.913,3.623,3.913c1.393,0,2.209-0.529,2.881-1.033c0.145-0.096,0.24-0.144,0.432-0.144
			c0.385,0,0.697,0.312,0.697,0.696c0,0.264-0.121,0.408-0.264,0.552c-0.361,0.36-1.609,1.345-3.746,1.345
			c-3.191,0-5.184-1.752-5.184-5.785C423.008,218.355,424.832,216.292,427.953,216.292z M427.953,217.683
			c-2.09,0-3.24,1.345-3.385,3.48h6.457C431.025,219.435,430.424,217.683,427.953,217.683z"/>
		<path fill="#FFFFFF" d="M436.447,211.203v13.705c0,0.96,0.313,1.368,0.961,1.368c0.383,0,0.719,0.313,0.719,0.721
			c0,0.407-0.336,0.719-0.719,0.719c-1.609,0-2.496-0.959-2.496-2.808v-13.705c0-0.408,0.359-0.769,0.768-0.769
			C436.111,210.434,436.447,210.794,436.447,211.203z"/>
		<path fill="#FFFFFF" d="M457.52,211.971V226.9c0,0.456-0.359,0.815-0.814,0.815c-0.289,0-0.506-0.119-0.674-0.336l-8.447-12.744
			v12.289c0,0.432-0.361,0.791-0.793,0.791S446,227.356,446,226.924v-14.953c0-0.433,0.359-0.793,0.791-0.793
			c0.289,0,0.529,0.168,0.648,0.336l8.496,12.77v-12.313c0-0.433,0.361-0.793,0.793-0.793S457.52,211.539,457.52,211.971z"/>
		<path fill="#FFFFFF" d="M462.055,217.204v6.264c0,1.561,0.504,2.904,2.93,2.904c2.424,0,2.928-1.344,2.928-2.904v-6.264
			c0-0.433,0.359-0.769,0.791-0.769c0.408,0,0.744,0.336,0.744,0.769v6.264c0,2.28-0.744,4.369-4.463,4.369
			c-3.697,0-4.465-2.089-4.465-4.369v-6.264c0-0.433,0.336-0.769,0.768-0.769C461.695,216.435,462.055,216.771,462.055,217.204z"/>
		<path fill="#FFFFFF" d="M481.473,220.54v6.408c0,0.432-0.338,0.768-0.77,0.768s-0.768-0.336-0.768-0.768v-6.096
			c0-1.896-0.553-3.193-2.881-3.193c-2.375,0-3.191,1.44-3.191,3.361v5.928c0,0.432-0.336,0.768-0.768,0.768
			c-0.434,0-0.77-0.336-0.77-0.768v-9.744c0-0.433,0.336-0.769,0.77-0.769c0.432,0,0.768,0.336,0.768,0.769v0.768
			c0.455-0.912,1.633-1.68,3.191-1.68C480.752,216.292,481.473,218.499,481.473,220.54z"/>
		<path fill="#FFFFFF" d="M488.576,216.292c3.84,0,4.584,3.048,4.584,4.68c0,0.696,0,1.536-0.961,1.536h-7.008
			c0,2.376,1.367,3.913,3.623,3.913c1.393,0,2.209-0.529,2.881-1.033c0.145-0.096,0.24-0.144,0.432-0.144
			c0.385,0,0.697,0.312,0.697,0.696c0,0.264-0.121,0.408-0.264,0.552c-0.361,0.36-1.609,1.345-3.746,1.345
			c-3.191,0-5.184-1.752-5.184-5.785C483.631,218.355,485.455,216.292,488.576,216.292z M488.576,217.683
			c-2.09,0-3.24,1.345-3.385,3.48h6.457C491.648,219.435,491.047,217.683,488.576,217.683z"/>
		<path fill="#FFFFFF" d="M496.807,219.219c0,2.52,6.313,1.584,6.313,5.424c0,2.185-1.801,3.169-4.08,3.169
			c-1.969,0-3.48-0.937-4.105-1.728c-0.119-0.168-0.168-0.289-0.168-0.457c0-0.384,0.313-0.695,0.697-0.695
			c0.145,0,0.336,0.047,0.527,0.24c0.744,0.744,1.705,1.176,3.049,1.176c1.367,0,2.545-0.457,2.545-1.705
			c0-2.472-6.314-1.487-6.314-5.424c0-1.992,1.633-2.904,3.674-2.904c1.631,0,2.904,0.553,3.648,1.536
			c0.072,0.097,0.168,0.24,0.168,0.456c0,0.385-0.313,0.696-0.697,0.696c-0.119,0-0.311-0.024-0.504-0.216
			c-0.648-0.625-1.367-1.008-2.615-1.008C497.863,217.78,496.807,218.116,496.807,219.219z"/>
	</g>
</g>
</svg>
